<?xml version="1.0" encoding="UTF-8"?>
<!--Generator: Apple Native CoreSVG 232.5-->
<!DOCTYPE svg
PUBLIC "-//W3C//DTD SVG 1.1//EN"
       "http://www.w3.org/Graphics/SVG/1.1/DTD/svg11.dtd">
<svg version="1.1" xmlns="http://www.w3.org/2000/svg" xmlns:xlink="http://www.w3.org/1999/xlink" width="24.5508" height="14.2871">
 <g>
  <rect height="14.2871" opacity="0" width="24.5508" x="0" y="0"/>
  <path d="M10.4199 13.8379L23.7695 13.8379C24.209 13.8379 24.5508 13.4961 24.5508 13.0566C24.5508 12.6074 24.209 12.2656 23.7695 12.2656L10.4199 12.2656C9.98047 12.2656 9.63867 12.6074 9.63867 13.0566C9.63867 13.4961 9.98047 13.8379 10.4199 13.8379Z" fill="#000000" fill-opacity="0.5"/>
  <path d="M6.10352 14.2871C6.78711 14.2871 7.33398 13.7305 7.33398 13.0566C7.33398 12.373 6.78711 11.8262 6.10352 11.8262C5.42969 11.8262 4.87305 12.373 4.87305 13.0566C4.87305 13.7305 5.42969 14.2871 6.10352 14.2871Z" fill="#000000" fill-opacity="0.85"/>
  <path d="M7.97852 7.93945L21.3281 7.93945C21.7676 7.93945 22.1094 7.58789 22.1094 7.14844C22.1094 6.70898 21.7676 6.36719 21.3281 6.36719L7.97852 6.36719C7.53906 6.36719 7.19727 6.70898 7.19727 7.14844C7.19727 7.58789 7.53906 7.93945 7.97852 7.93945Z" fill="#000000" fill-opacity="0.5"/>
  <path d="M3.67188 8.37891C4.3457 8.37891 4.90234 7.83203 4.90234 7.14844C4.90234 6.46484 4.3457 5.91797 3.67188 5.91797C2.98828 5.91797 2.44141 6.46484 2.44141 7.14844C2.44141 7.83203 2.98828 8.37891 3.67188 8.37891Z" fill="#000000" fill-opacity="0.85"/>
  <path d="M5.54688 2.03125L18.8867 2.03125C19.3262 2.03125 19.6777 1.68945 19.6777 1.25C19.6777 0.800781 19.3262 0.458984 18.8867 0.458984L5.54688 0.458984C5.09766 0.458984 4.75586 0.800781 4.75586 1.25C4.75586 1.68945 5.09766 2.03125 5.54688 2.03125Z" fill="#000000" fill-opacity="0.5"/>
  <path d="M1.23047 2.4707C1.91406 2.4707 2.46094 1.92383 2.46094 1.25C2.46094 0.566406 1.91406 0.0195312 1.23047 0.0195312C0.546875 0.0195312 0 0.566406 0 1.25C0 1.92383 0.546875 2.4707 1.23047 2.4707Z" fill="#000000" fill-opacity="0.85"/>
 </g>
</svg>
