<svg width="1000" height="1000" viewBox="0 0 1000 1000" fill="none" xmlns="http://www.w3.org/2000/svg">
<rect width="1000" height="1000" fill="white"/>
<g clip-path="url(#clip0_1_48)">
<circle cx="500" cy="500" r="347.2" fill="#87B4FF"/>
<path fill-rule="evenodd" clip-rule="evenodd" d="M352.265 156.123C364.58 155.451 376.89 157.525 388.304 162.194C399.719 166.864 409.953 174.014 418.265 183.125C426.577 192.236 432.76 203.08 436.366 214.874V214.875L473.79 337.281L399.548 359.979L370.201 384.605L293.066 292.68C285.139 283.232 279.411 272.14 276.297 260.207C273.183 248.274 272.761 235.797 275.061 223.681C277.362 211.564 282.328 200.111 289.598 190.149C296.869 180.188 306.263 171.967 317.101 166.082C327.94 160.197 339.951 156.795 352.265 156.123ZM623.895 105.789C635.313 101.292 647.584 99.3751 659.829 100.178C672.074 100.98 683.991 104.481 694.724 110.431C705.457 116.38 714.741 124.631 721.911 134.59C729.08 144.549 733.959 155.971 736.195 168.037C738.431 180.103 737.971 192.515 734.846 204.382C731.722 216.248 726.011 227.276 718.125 236.676L718.13 236.68L604.999 371.503L583.833 353.742L518.402 332.483L575.26 157.489H575.259C579.052 145.818 585.379 135.13 593.787 126.192C602.195 117.254 612.478 110.286 623.895 105.789ZM654.385 183.21L654.391 183.202L654.388 183.2L654.385 183.21Z" fill="#FFA0AA"/>
<path fill-rule="evenodd" clip-rule="evenodd" d="M623.896 105.789C635.314 101.292 647.586 99.3752 659.831 100.178C672.076 100.98 683.993 104.482 694.726 110.432C705.458 116.381 714.742 124.631 721.912 134.59C729.082 144.549 733.96 155.972 736.196 168.038C738.432 180.104 737.972 192.516 734.848 204.383C731.724 216.248 726.013 227.276 718.127 236.676L718.132 236.68L618.324 355.624C631.259 363.962 643.373 373.705 654.423 384.755C695.38 425.713 718.391 481.264 718.391 539.187V769.905C658.737 818.233 582.745 847.186 499.991 847.187C417.237 847.187 341.245 818.233 281.591 769.905V539.187C281.591 481.263 304.601 425.713 345.559 384.755C350.055 380.259 354.726 375.979 359.558 371.922L293.065 292.68C285.138 283.232 279.41 272.14 276.296 260.207C273.182 248.274 272.76 235.797 275.061 223.681C277.361 211.564 282.326 200.11 289.597 190.148C296.867 180.187 306.263 171.967 317.101 166.082C327.939 160.197 339.95 156.795 352.265 156.123C364.579 155.451 376.889 157.525 388.304 162.194C399.718 166.864 409.952 174.013 418.265 183.124C426.577 192.235 432.759 203.08 436.365 214.874L469.403 322.938C479.478 321.514 489.697 320.787 499.99 320.787C507.322 320.787 514.616 321.156 521.848 321.883L575.263 157.489H575.262C579.054 145.818 585.381 135.131 593.789 126.192C602.197 117.254 612.479 110.287 623.896 105.789ZM384.028 261.062C381.361 260.156 378.531 259.824 375.727 260.088C372.922 260.352 370.203 261.207 367.751 262.594C365.299 263.981 363.168 265.871 361.497 268.139C359.826 270.407 358.653 273.004 358.056 275.757C357.458 278.51 357.449 281.359 358.028 284.116C358.608 286.873 359.764 289.477 361.42 291.756L400.086 344.977C407.414 341.207 414.946 337.857 422.647 334.94L396.01 272.186C394.909 269.592 393.273 267.261 391.208 265.344C389.143 263.427 386.696 261.967 384.028 261.062ZM636.011 197.664C633.232 197.439 630.437 197.799 627.805 198.718C625.173 199.637 622.761 201.096 620.727 203.002C618.819 204.789 617.281 206.931 616.198 209.307L615.988 209.785L564.707 330.596C569.514 332.087 574.266 333.744 578.954 335.563L650.979 228.783L650.978 228.782C652.537 226.471 653.597 223.86 654.087 221.115C654.577 218.371 654.488 215.554 653.825 212.846C653.162 210.138 651.94 207.598 650.238 205.39C648.536 203.182 646.391 201.354 643.941 200.023C641.491 198.693 638.79 197.889 636.011 197.664ZM654.388 183.208L654.393 183.202L654.391 183.2L654.388 183.208Z" fill="white"/>
<path fill-rule="evenodd" clip-rule="evenodd" d="M623.905 105.789C635.323 101.292 647.595 99.3754 659.84 100.178C672.085 100.98 684.002 104.482 694.734 110.431C705.467 116.38 714.751 124.631 721.921 134.59C729.091 144.549 733.969 155.971 736.205 168.037C738.441 180.103 737.981 192.515 734.857 204.382C731.732 216.249 726.022 227.279 718.134 236.68L618.322 355.629C631.261 363.969 643.378 373.714 654.432 384.768C695.389 425.725 718.4 481.277 718.4 539.199V769.917C697.815 786.594 675.284 800.965 651.2 812.634C605.494 834.78 554.197 847.199 500 847.199C433.429 847.199 371.234 828.462 318.4 795.977C305.556 788.079 293.266 779.368 281.6 769.917V539.199C281.6 481.277 304.61 425.725 345.567 384.768C350.064 380.271 354.735 375.99 359.567 371.933L293.065 292.679C285.138 283.231 279.411 272.139 276.297 260.206C273.183 248.273 272.76 235.796 275.061 223.68C277.361 211.564 282.327 200.11 289.598 190.149C296.868 180.187 306.263 171.966 317.101 166.081C327.939 160.197 339.951 156.796 352.265 156.123C364.579 155.451 376.89 157.525 388.305 162.194C399.719 166.864 409.953 174.014 418.265 183.124C426.576 192.235 432.759 203.08 436.365 214.873L469.408 322.952C479.485 321.527 489.705 320.8 500 320.8C507.33 320.8 514.622 321.168 521.852 321.895L575.271 157.489L575.634 156.398C579.46 145.152 585.653 134.851 593.798 126.192C602.206 117.254 612.488 110.287 623.905 105.789ZM318.4 700.346C366.396 743.876 430.101 770.399 500 770.399C556.009 770.399 608.041 753.37 651.2 724.207V539.2H318.4V700.346ZM500 357.6C476.152 357.6 452.537 362.297 430.505 371.423C408.472 380.549 388.453 393.926 371.59 410.789C354.727 427.652 341.35 447.672 332.224 469.704C323.098 491.737 318.4 515.351 318.4 539.199H651.2C651.2 515.352 647.289 491.737 639.69 469.704C632.092 447.672 620.954 427.652 606.914 410.789C592.874 393.926 576.206 380.549 557.861 371.423C539.517 362.297 519.856 357.6 500 357.6ZM374.37 196.254C368.005 193.65 361.139 192.493 354.272 192.868C347.404 193.243 340.704 195.14 334.66 198.422C328.616 201.704 323.377 206.289 319.322 211.844C315.268 217.399 312.498 223.787 311.215 230.544C309.932 237.301 310.168 244.259 311.904 250.914C313.641 257.569 316.835 263.755 321.255 269.024H321.256L389.761 350.663C403.574 342.587 418.226 336.057 433.444 331.188L401.173 225.633L400.981 225.018C398.946 218.678 395.57 212.848 391.079 207.926C386.444 202.845 380.736 198.858 374.37 196.254ZM657.434 136.899C650.605 136.451 643.76 137.52 637.393 140.028C631.025 142.537 625.291 146.423 620.602 151.407C615.913 156.392 612.384 162.352 610.27 168.86L583.675 160.22L610.271 168.861L558.324 328.732C567.43 331.255 576.356 334.365 585.044 338.038L689.942 213.025L654.398 183.199L689.943 213.025C694.342 207.782 697.527 201.631 699.27 195.013C701.012 188.395 701.269 181.473 700.022 174.744C698.774 168.015 696.054 161.644 692.056 156.09C688.057 150.536 682.879 145.935 676.894 142.617C670.908 139.3 664.262 137.346 657.434 136.899Z" fill="#CDCDCD" fill-opacity="0.5"/>
<circle cx="434" cy="434.8" r="9.2" fill="#1E2D46"/>
<circle cx="566" cy="434.8" r="9.2" fill="#1E2D46"/>
<path fill-rule="evenodd" clip-rule="evenodd" d="M500 452.8C513.255 452.8 524 460.143 524 469.2C524 476.543 516.937 482.758 507.2 484.848V499.418L536.261 528.479C539.073 531.29 539.073 535.849 536.261 538.661C533.449 541.473 528.89 541.473 526.078 538.661L500.033 512.615L483.274 529.375C480.462 532.187 475.903 532.187 473.091 529.375C470.28 526.563 470.28 522.005 473.091 519.193L492.8 499.484V484.848C483.063 482.758 476 476.543 476 469.2C476 460.143 486.745 452.8 500 452.8Z" fill="#1E2D46"/>
<path fill-rule="evenodd" clip-rule="evenodd" d="M623.906 105.789C635.323 101.292 647.595 99.3755 659.84 100.178C672.085 100.981 684.002 104.482 694.735 110.431C705.468 116.38 714.752 124.631 721.921 134.59C729.091 144.549 733.969 155.972 736.206 168.037C738.442 180.103 737.981 192.515 734.857 204.382C732.18 214.549 727.603 224.1 721.387 232.539C770.036 272.807 806.928 325.711 827.838 385.674C851.828 454.467 853.569 529.064 832.816 598.901C812.814 666.21 772.892 725.811 718.401 769.904V769.918C706.735 779.369 694.445 788.079 681.601 795.976V795.919C630.473 827.296 571.888 845.006 511.511 847.009C443.424 849.268 376.287 831.444 318.401 795.919V795.976C305.557 788.079 293.267 779.368 281.601 769.917V769.905C233.297 730.819 196.209 679.351 174.47 620.74C149.135 552.431 145.928 477.884 165.306 407.653C183.667 341.106 221.424 281.63 273.638 236.736C273.767 232.366 274.24 228 275.06 223.681C277.36 211.565 282.327 200.111 289.597 190.15C296.868 180.188 306.262 171.967 317.1 166.082C327.938 160.198 339.95 156.797 352.264 156.124C364.578 155.452 376.89 157.526 388.304 162.196C392.131 163.761 395.824 165.606 399.357 167.709C456.118 150.517 516.31 148.16 574.188 160.82L575.271 157.489C579.063 145.819 585.39 135.131 593.798 126.193C602.206 117.255 612.488 110.287 623.906 105.789ZM500.001 357.6C451.838 357.6 405.647 376.733 371.59 410.789C338.066 444.314 319.003 489.597 318.415 536.945L318.401 539.2V743.797C322.375 746.757 326.427 749.625 330.556 752.397C383.519 787.953 446.324 805.947 510.08 803.832C572.079 801.775 631.92 780.8 681.601 743.792V539.2L681.587 536.945C681 489.597 661.936 444.314 628.412 410.789C594.355 376.733 548.164 357.6 500.001 357.6ZM286.459 283.631C248.669 320.928 221.168 367.614 206.951 419.143C189.984 480.635 192.791 545.908 214.974 605.717C229.699 645.416 252.468 681.37 281.601 711.459V539.199C281.601 481.277 304.611 425.725 345.569 384.768C350.065 380.272 354.736 375.991 359.568 371.935L293.065 292.68C290.655 289.808 288.451 286.784 286.459 283.631ZM618.324 355.628C631.263 363.968 643.379 373.714 654.433 384.768C695.391 425.726 718.401 481.277 718.401 539.199V711.459C752.278 676.47 777.411 633.688 791.406 586.595C809.576 525.447 808.052 460.132 787.047 399.899C768.725 347.358 736.389 301.008 693.747 265.741L618.324 355.628ZM374.37 196.255C368.004 193.651 361.138 192.494 354.271 192.869C347.404 193.244 340.704 195.141 334.66 198.423C328.616 201.705 323.376 206.29 319.322 211.845C315.267 217.4 312.497 223.788 311.214 230.545C309.932 237.302 310.167 244.261 311.904 250.915C313.64 257.57 316.834 263.756 321.254 269.025H321.255L389.759 350.664C403.573 342.588 418.225 336.059 433.444 331.189L401.172 225.634L400.98 225.019C398.945 218.679 395.569 212.849 391.079 207.927C386.443 202.846 380.735 198.859 374.37 196.255ZM657.434 136.899C650.605 136.451 643.76 137.52 637.393 140.029C631.026 142.537 625.291 146.423 620.602 151.407C615.913 156.392 612.385 162.352 610.27 168.861L583.675 160.22L610.271 168.862L558.326 328.731C567.432 331.254 576.357 334.365 585.045 338.038L689.943 213.025L654.399 183.199L689.944 213.025C694.343 207.782 697.528 201.631 699.27 195.013C701.012 188.395 701.269 181.473 700.022 174.744C698.775 168.015 696.054 161.644 692.056 156.09C688.058 150.536 682.879 145.935 676.894 142.617C670.909 139.3 664.263 137.346 657.434 136.899ZM560.763 202.137C518.194 193.453 474.299 194 432.04 203.693C433.744 207.302 435.192 211.037 436.365 214.874L469.408 322.952C479.485 321.527 489.706 320.8 500.001 320.8C507.331 320.8 514.623 321.168 521.852 321.895L560.763 202.137Z" fill="#1E2D46"/>
<circle cx="500" cy="648.8" r="40" fill="#1E2D46"/>
<path d="M500 608.8C522.091 608.8 540 626.708 540 648.8C540 668.991 525.04 685.684 505.6 688.407V669.396C508.022 667.653 509.6 664.811 509.6 661.6C509.599 656.298 505.302 652 500 652C494.698 652 490.401 656.298 490.4 661.6C490.4 664.811 491.978 667.653 494.4 669.396V688.407C474.96 685.684 460 668.991 460 648.8C460 626.708 477.909 608.8 500 608.8Z" fill="#E1E14B"/>
<path d="M500 608.8C517.023 608.8 531.56 619.435 537.335 634.422C541.061 634.696 544 637.803 544 641.6C544 644.43 542.366 646.877 539.99 648.054C539.995 648.302 540 648.551 540 648.8C540 668.991 525.04 685.684 505.6 688.407V673.784C517.045 671.23 525.6 661.015 525.6 648.8H474.4C474.4 661.015 482.955 671.23 494.4 673.784V688.407C474.96 685.684 460 668.991 460 648.8C460 648.551 460.004 648.302 460.009 648.054C457.634 646.877 456 644.43 456 641.6C456 637.804 458.938 634.696 462.664 634.422C468.439 619.434 482.977 608.8 500 608.8ZM500 623.2C491.201 623.2 483.44 627.64 478.832 634.4H521.168C516.56 627.64 508.799 623.2 500 623.2Z" fill="#1E2D46"/>
</g>
<defs>
<clipPath id="clip0_1_48">
<rect width="800" height="800" fill="white" transform="translate(100 100)"/>
</clipPath>
</defs>
</svg>
