<svg width="1000" height="1000" viewBox="0 0 1000 1000" fill="none" xmlns="http://www.w3.org/2000/svg">
<g clip-path="url(#clip0_27_63376)">
<circle cx="500" cy="500" r="434" fill="#87B4FF"/>
<path d="M467.237 296.601L374.434 324.973L337.751 355.755L241.333 240.849L321.002 173.999L420.458 143.592L467.237 296.601ZM654.869 7.23547C669.141 1.61365 684.48 -0.781432 699.787 0.221802C715.093 1.22508 729.989 5.6025 743.405 13.0392C756.821 20.4759 768.426 30.7884 777.388 43.2374C786.35 55.6865 792.447 69.9644 795.243 85.047C798.038 100.13 797.463 115.644 793.557 130.478C789.652 145.31 782.514 159.095 772.656 170.845L772.662 170.85L631.249 339.379L604.792 317.179L523.003 290.605L594.076 71.8615H594.075C598.815 57.2728 606.724 43.9131 617.234 32.7404C627.744 21.5675 640.597 12.8574 654.869 7.23547ZM315.332 70.1534C330.725 69.3131 346.112 71.9051 360.381 77.7423C374.649 83.5796 387.442 92.5158 397.832 103.904C408.222 115.293 415.95 128.85 420.457 143.592L321.002 173.998L241.333 240.849C231.424 229.039 224.263 215.174 220.371 200.258C216.478 185.341 215.951 169.745 218.827 154.6C221.702 139.455 227.909 125.138 236.997 112.686C246.085 100.234 257.829 89.9576 271.377 82.6017C284.924 75.2459 299.939 70.9939 315.332 70.1534ZM692.982 104.012L692.99 104.003L692.986 104L692.982 104.012Z" fill="#FFA0AA"/>
<path d="M654.871 7.23654C669.143 1.6147 684.482 -0.781298 699.789 0.221894C715.095 1.2252 729.991 5.60266 743.407 13.0393C756.823 20.476 768.428 30.7885 777.39 43.2375C786.352 55.6867 792.449 69.9645 795.245 85.0471C798.04 100.13 797.465 115.644 793.559 130.478C789.654 145.31 782.516 159.095 772.658 170.845L772.664 170.85L647.906 319.53C664.074 329.952 679.215 342.131 693.028 355.944C744.225 407.141 772.988 476.58 772.988 548.984V837.382C698.421 897.792 603.431 933.984 499.988 933.984C396.545 933.984 301.555 897.792 226.988 837.382V548.984C226.988 476.58 255.751 407.141 306.948 355.944C312.568 350.323 318.408 344.972 324.448 339.901L241.333 240.848C231.424 229.039 224.264 215.173 220.372 200.257C216.479 185.341 215.951 169.745 218.827 154.6C221.702 139.455 227.909 125.137 236.998 112.685C246.086 100.233 257.829 89.9565 271.377 82.6008C284.924 75.2452 299.939 70.993 315.332 70.1526C330.725 69.3122 346.113 71.9042 360.381 77.7414C374.649 83.5787 387.442 92.5161 397.832 103.905C408.221 115.293 415.95 128.849 420.458 143.591L461.756 278.673C474.349 276.892 487.122 275.984 499.988 275.984C509.153 275.984 518.27 276.445 527.308 277.354L594.078 71.8615H594.077C598.817 57.2729 606.726 43.9132 617.236 32.7404C627.746 21.5677 640.599 12.8585 654.871 7.23654ZM355.036 201.326C351.701 200.194 348.164 199.78 344.658 200.11C341.152 200.44 337.754 201.506 334.689 203.24C331.624 204.975 328.959 207.338 326.871 210.173C324.782 213.008 323.316 216.254 322.569 219.696C321.822 223.137 321.81 226.698 322.535 230.144C323.259 233.59 324.704 236.845 326.774 239.694L375.108 306.22C384.268 301.508 393.683 297.319 403.309 293.674L370.012 215.231C368.636 211.989 366.59 209.075 364.009 206.679C361.429 204.283 358.371 202.458 355.036 201.326ZM670.013 122.08C666.54 121.799 663.045 122.248 659.756 123.397C656.465 124.546 653.451 126.371 650.908 128.753C648.364 131.135 646.347 134.023 644.985 137.231L656.317 142.04V142.041L644.985 137.232L580.883 288.243C586.893 290.108 592.832 292.18 598.693 294.452L688.723 160.979L678.299 153.948V153.947L688.723 160.979C690.672 158.09 691.995 154.825 692.608 151.395C693.221 147.964 693.109 144.442 692.281 141.057C691.453 137.672 689.925 134.498 687.798 131.738C685.67 128.977 682.989 126.691 679.926 125.029C676.864 123.366 673.487 122.361 670.013 122.08ZM692.984 104.012L692.992 104.003L692.988 104L692.984 104.012Z" fill="white"/>
<path d="M315.331 70.1533C330.724 69.313 346.112 71.9053 360.38 77.7422C374.648 83.5794 387.441 92.5159 397.831 103.904C408.221 115.293 415.95 128.849 420.457 143.591L461.761 278.69C474.356 276.909 487.131 276 500 276C509.163 276 518.279 276.461 527.316 277.369L594.09 71.8613L637.839 86.0762L572.906 285.915C584.289 289.07 595.445 292.957 606.306 297.549L737.431 141.281L772.669 170.85L647.904 319.537C664.078 329.962 679.223 342.143 693.04 355.96C744.237 407.157 773 476.596 773 548.999V837.397C747.268 858.244 719.104 876.206 689 890.792C631.867 918.474 567.747 933.999 500 933.999C416.786 933.999 339.042 910.578 273 869.971C256.945 860.099 241.582 849.211 227 837.397V548.999C227 476.595 255.763 407.157 306.96 355.96C312.581 350.339 318.421 344.989 324.461 339.917L241.332 240.849C231.423 229.039 224.263 215.174 220.37 200.258C216.478 185.342 215.951 169.745 218.826 154.6C221.702 139.455 227.909 125.137 236.997 112.686C246.085 100.234 257.829 89.9574 271.376 82.6016C284.923 75.246 299.938 70.9939 315.331 70.1533ZM273 750.43C332.994 804.844 412.625 837.999 500 837.999C570.011 837.999 635.051 816.713 689 780.26V549H273V750.43ZM500 321.999C470.19 321.999 440.672 327.871 413.131 339.278C385.59 350.686 360.565 367.407 339.486 388.485C318.407 409.564 301.687 434.589 290.279 462.13C278.872 489.671 273 519.189 273 548.999H689C689 519.189 684.111 489.671 674.613 462.13C665.115 434.589 651.194 409.564 633.644 388.485C616.093 367.407 595.257 350.686 572.327 339.278C549.755 328.049 525.587 322.183 501.163 322.003L500 321.999ZM342.963 120.317C335.006 117.062 326.423 115.616 317.839 116.085C309.255 116.554 300.881 118.925 293.326 123.027C285.771 127.13 279.221 132.861 274.152 139.805C269.084 146.749 265.622 154.735 264.019 163.181C262.415 171.627 262.709 180.325 264.88 188.644C267.051 196.962 271.044 204.694 276.569 211.279H276.57L362.2 313.33C379.467 303.234 397.782 295.073 416.806 288.985L376.467 157.041L376.227 156.272C373.683 148.348 369.462 141.061 363.849 134.908C358.054 128.557 350.92 123.573 342.963 120.317ZM654.883 7.23537C669.155 1.61362 684.494 -0.781398 699.801 0.221701C715.107 1.22498 730.004 5.60152 743.42 13.0381C756.836 20.4748 768.441 30.7884 777.403 43.2373C786.365 55.6863 792.462 69.9645 795.258 85.0469C798.053 100.129 797.478 115.644 793.572 130.478C789.667 145.311 782.528 159.098 772.668 170.849L737.43 141.28C742.928 134.727 746.91 127.038 749.088 118.766C751.266 110.493 751.587 101.841 750.028 93.4297C748.469 85.0184 745.068 77.055 740.07 70.1123C735.072 63.1698 728.6 57.4178 721.118 53.2705C713.636 49.1234 705.329 46.6826 696.793 46.1231C688.257 45.5637 679.701 46.9 671.742 50.0352C663.783 53.1704 656.615 58.0281 650.754 64.2588C644.893 70.4895 640.481 77.9398 637.838 86.0752L594.09 71.8613C598.83 57.2729 606.739 43.913 617.249 32.7403C627.759 21.5677 640.611 12.8573 654.883 7.23537Z" fill="#CDCDCD" fill-opacity="0.5"/>
<circle cx="417.5" cy="418.5" r="11.5" fill="#1E2D46"/>
<circle cx="582.5" cy="418.5" r="11.5" fill="#1E2D46"/>
<path fill-rule="evenodd" clip-rule="evenodd" d="M500 441C516.569 441 530 450.178 530 461.5C530 470.679 521.172 478.448 509 481.061V499.271L545.327 535.598C548.841 539.112 548.841 544.811 545.327 548.326C541.812 551.841 536.113 551.841 532.598 548.326L500.041 515.769L479.092 536.72C475.577 540.234 469.878 540.234 466.364 536.72C462.849 533.205 462.849 527.506 466.364 523.991L491 499.354V481.061C478.829 478.448 470 470.679 470 461.5C470 450.178 483.432 441 500 441Z" fill="#1E2D46"/>
<path d="M654.882 7.23589C669.154 1.61404 684.494 -0.780895 699.8 0.222221C715.107 1.22547 730.003 5.60197 743.42 13.0386C756.836 20.4753 768.441 30.7888 777.403 43.2378C786.365 55.6869 792.462 69.965 795.257 85.0474C798.053 100.13 797.477 115.644 793.572 130.478C790.226 143.187 784.505 155.126 776.734 165.675C837.545 216.01 883.658 282.141 909.797 357.094C939.784 443.085 941.961 536.33 916.019 623.627C891.017 707.764 841.115 782.265 773.002 837.38V837.397C758.419 849.211 743.056 860.099 727.002 869.97V869.9C663.092 909.121 589.859 931.259 514.388 933.762C429.28 936.585 345.359 914.306 273.002 869.901V869.97C256.947 860.099 241.584 849.211 227.002 837.397V837.383C166.622 788.527 120.262 724.19 93.0876 650.925C61.418 565.54 57.4104 472.356 81.6325 384.567C104.584 301.384 151.78 227.038 217.048 170.92C217.209 165.457 217.801 160 218.826 154.6C221.701 139.455 227.909 125.138 236.997 112.686C246.085 100.234 257.828 89.958 271.376 82.6021C284.923 75.2463 299.938 70.9944 315.331 70.1539C330.724 69.3135 346.112 71.9057 360.38 77.7427C365.162 79.6994 369.779 82.0055 374.195 84.6343C445.147 63.1441 520.389 60.1986 592.737 76.024L594.09 71.8619L637.839 86.0767L572.907 285.914C584.29 289.068 595.446 292.957 606.306 297.548L737.43 141.282L746.09 148.547L737.429 141.281C742.928 134.728 746.91 127.039 749.088 118.766C751.265 110.494 751.587 101.841 750.028 93.4302C748.469 85.0188 745.068 77.0556 740.07 70.1128C735.072 63.1702 728.6 57.4184 721.118 53.271C713.636 49.1239 705.329 46.6831 696.793 46.1236C688.256 45.5642 679.701 46.9004 671.742 50.0357C663.783 53.171 656.615 58.0285 650.754 64.2593C644.892 70.49 640.481 77.9402 637.838 86.0757L594.09 71.8619C598.83 57.2733 606.739 43.9135 617.249 32.7408C627.759 21.5681 640.611 12.8579 654.882 7.23589ZM500.002 322C439.798 322 382.059 345.915 339.488 388.486C297.25 430.724 273.377 487.895 273.007 547.589L273.002 549V804.749C277.969 808.448 283.033 812.033 288.194 815.498C354.397 859.942 432.904 882.435 512.598 879.792C590.098 877.221 664.9 851.004 727.002 804.745V549L726.998 547.589C726.627 487.894 702.754 430.724 660.515 388.486C617.945 345.915 560.206 322 500.002 322ZM233.073 229.538C185.834 276.158 151.459 334.518 133.687 398.929C112.479 475.795 115.988 557.386 143.717 632.147C162.124 681.773 190.583 726.72 227.002 764.334V548.999C227.002 476.595 255.765 407.157 306.962 355.96C312.582 350.339 318.422 344.99 324.462 339.919L241.332 240.849C238.32 237.259 235.562 233.479 233.073 229.538ZM647.905 319.537C664.079 329.961 679.225 342.143 693.042 355.96C744.239 407.157 773.001 476.595 773.002 548.999V764.329C815.349 720.592 846.763 667.112 864.257 608.245C886.97 531.81 885.064 450.166 858.808 374.875C835.906 309.199 795.487 251.261 742.185 207.177L647.905 319.537ZM342.963 120.318C335.005 117.063 326.423 115.617 317.839 116.086C309.254 116.554 300.881 118.926 293.326 123.028C285.771 127.13 279.221 132.861 274.152 139.805C269.084 146.749 265.622 154.735 264.018 163.181C262.415 171.627 262.709 180.326 264.88 188.644C267.05 196.962 271.043 204.694 276.569 211.28H276.57L362.2 313.331C379.467 303.235 397.782 295.073 416.805 288.986L376.466 157.042L376.226 156.272C373.683 148.348 369.461 141.061 363.848 134.909C358.054 128.558 350.92 123.573 342.963 120.318ZM575.955 127.671C522.744 116.816 467.875 117.501 415.051 129.616C417.18 134.127 418.99 138.796 420.457 143.591L461.76 278.691C474.357 276.909 487.132 276 500.002 276C509.164 276 518.279 276.46 527.316 277.369L575.955 127.671Z" fill="#1E2D46"/>
<circle cx="500" cy="686" r="50" fill="#1E2D46"/>
<path d="M500 636C527.614 636 550 658.386 550 686C550 711.239 531.3 732.108 507 735.513V711.743C510.027 709.565 512 706.014 512 702C512 695.373 506.627 690 500 690C493.373 690 488 695.373 488 702C488 706.014 489.973 709.565 493 711.743V735.513C468.7 732.108 450 711.239 450 686C450 658.386 472.386 636 500 636Z" fill="#E1E14B"/>
<path d="M500 636C521.279 636 539.452 649.293 546.671 668.027C551.328 668.371 555 672.255 555 677C555 680.537 552.958 683.595 549.99 685.066C549.996 685.377 550 685.688 550 686C550 711.239 531.3 732.108 507 735.513V717.229C521.306 714.037 532 701.268 532 686H468C468 701.268 478.694 714.037 493 717.229V735.513C468.7 732.108 450 711.239 450 686C450 685.688 450.003 685.377 450.009 685.066C447.041 683.595 445 680.537 445 677C445 672.256 448.671 668.371 453.328 668.027C460.547 649.293 478.721 636 500 636ZM500 654C489.002 654 479.3 659.549 473.54 668H526.46C520.7 659.549 510.998 654 500 654Z" fill="#1E2D46"/>
</g>
<defs>
<clipPath id="clip0_27_63376">
<rect width="1000" height="1000" fill="white"/>
</clipPath>
</defs>
</svg>
