<?xml version="1.0" encoding="UTF-8" standalone="no"?><!DOCTYPE svg PUBLIC "-//W3C//DTD SVG 1.1//EN" "http://www.w3.org/Graphics/SVG/1.1/DTD/svg11.dtd"><svg width="1024px" height="1024px" version="1.1" xmlns="http://www.w3.org/2000/svg" xmlns:xlink="http://www.w3.org/1999/xlink" xml:space="preserve" xmlns:serif="http://www.serif.com/" style="fill-rule:evenodd;clip-rule:evenodd;stroke-linejoin:round;stroke-miterlimit:2;"><rect id="le-flat-fill-blue-transparent" x="0" y="0" width="1024" height="1024" style="fill:none;"/><g id="le-flat-fill-blue-transparent1" serif:id="le-flat-fill-blue-transparent"><clipPath id="_clip1"><rect x="0" y="0" width="1024" height="1024"/></clipPath><g clip-path="url(#_clip1)"><rect id="le-flat-fill-blue-transparent2" serif:id="le-flat-fill-blue-transparent" x="0" y="0" width="1024" height="1024" style="fill:none;"/><g id="le-flat-fill-blue-transparent3" serif:id="le-flat-fill-blue-transparent"><path d="M795.336,169.711C893.712,251.256 956.416,374.363 956.416,512C956.416,757.28 757.28,956.416 512,956.416C266.72,956.416 67.584,757.28 67.584,512C67.584,377.378 127.571,256.656 222.251,175.129C223.866,117.759 270.946,71.68 328.704,71.68C348.338,71.68 367.006,77.058 383.076,86.604C423.887,74.235 467.173,67.584 512,67.584C544.597,67.584 576.379,71.101 606.987,77.776L608.348,73.587C622.605,29.708 663.495,0 709.632,0C768.409,0 816.128,47.719 816.128,106.496C816.128,129.305 808.807,151.449 795.336,169.711Z" style="fill:#1e2d46;"/><path d="M424.99,132.662C452.969,126.261 482.093,122.88 512,122.88C538.64,122.88 564.659,125.563 589.8,130.673L539.979,284.007C530.777,283.092 521.443,282.624 512,282.624C498.707,282.624 485.63,283.552 472.831,285.346L430.547,147.04C429.026,142.064 427.163,137.264 424.99,132.662ZM238.707,235.114C241.24,239.118 244.049,242.966 247.123,246.63L332.243,348.072C271.228,399.353 232.448,476.236 232.448,562.176L232.448,782.566C164.636,712.519 122.88,617.097 122.88,512C122.88,403.707 167.214,305.686 238.707,235.114ZM791.552,782.566L791.552,562.176C791.552,463.609 740.54,376.957 663.477,327.18L759.959,212.198C846.165,283.595 901.12,391.431 901.12,512C901.12,617.097 859.364,712.519 791.552,782.566Z" style="fill:#87b4ff;"/><path d="M279.552,562.176C279.552,433.798 383.623,329.728 512,329.728C640.377,329.728 744.448,433.798 744.448,562.176L744.448,824.003C679.572,872.435 599.109,901.12 512,901.12C424.891,901.12 344.428,872.435 279.552,824.003L279.552,562.176ZM427.52,416.768C421.021,416.768 415.744,422.045 415.744,428.544C415.744,435.043 421.021,440.32 427.52,440.32C434.019,440.32 439.296,435.043 439.296,428.544C439.296,422.045 434.019,416.768 427.52,416.768ZM596.48,416.768C589.981,416.768 584.704,422.045 584.704,428.544C584.704,435.043 589.981,440.32 596.48,440.32C602.979,440.32 608.256,435.043 608.256,428.544C608.256,422.045 602.979,416.768 596.48,416.768ZM460.809,701.509C460.803,701.827 460.8,702.145 460.8,702.464C460.8,730.722 483.742,753.664 512,753.664C540.258,753.664 563.2,730.722 563.2,702.464C563.2,702.145 563.197,701.827 563.191,701.509C566.23,700.002 568.32,696.867 568.32,693.248C568.32,688.391 564.555,684.407 559.786,684.057C552.387,664.882 533.771,651.264 512,651.264C490.229,651.264 471.613,664.882 464.214,684.057C459.445,684.407 455.68,688.391 455.68,693.248C455.68,696.867 457.77,700.002 460.809,701.509ZM512.043,528.148L545.38,561.486C548.977,565.082 554.817,565.082 558.414,561.486C562.01,557.889 562.01,552.049 558.414,548.452L521.216,511.255L521.216,492.605C533.674,489.928 542.72,481.968 542.72,472.576C542.72,460.99 528.955,451.584 512,451.584C495.045,451.584 481.28,460.99 481.28,472.576C481.28,481.968 490.326,489.928 502.784,492.605L502.784,511.34L477.557,536.567C473.96,540.164 473.96,546.004 477.557,549.601C481.153,553.197 486.993,553.197 490.59,549.601L512.043,528.148Z" style="fill:#fff;"/><path d="M744.437,768.362C744.441,768.359 744.444,768.356 744.448,768.353L744.448,824.003C679.572,872.435 599.109,901.12 512,901.12C424.891,901.12 344.428,872.435 279.552,824.003L279.552,768.353C341.005,824.116 422.564,858.112 512,858.112C583.663,858.112 650.269,836.285 705.525,798.922L705.525,562.176C705.525,433.799 618.881,329.728 512,329.728C640.377,329.728 744.448,433.799 744.448,562.176L744.437,562.176L744.437,768.362Z" style="fill:#cdcdcd;fill-opacity:0.5;"/><path d="M370.89,320.849L283.207,216.352C274.232,205.656 269.312,192.139 269.312,178.176C269.312,145.397 295.925,118.784 328.704,118.784C354.817,118.784 377.866,135.84 385.501,160.811L426.792,295.869C407.124,302.165 388.4,310.582 370.89,320.849Z" style="fill:#fff;"/><path d="M586.674,292.726L653.147,88.143C661.098,63.672 683.902,47.104 709.632,47.104C742.411,47.104 769.024,73.717 769.024,106.496C769.024,120.459 764.104,133.976 755.129,144.672L620.887,304.656C609.827,299.969 598.405,295.974 586.674,292.726Z" style="fill:#fff;"/><path d="M384.114,313.568L334.617,245.442C331.439,241.068 329.728,235.8 329.728,230.394C329.728,216.265 341.199,204.794 355.328,204.794C365.601,204.794 374.879,210.935 378.893,220.392L412.98,300.696C403.078,304.452 393.443,308.755 384.114,313.568Z" style="fill:#ffa0aa;"/><path d="M594.842,295.123L660.467,140.52C664.481,131.063 673.759,124.922 684.032,124.922C698.161,124.922 709.632,136.393 709.632,150.522C709.632,155.623 708.108,160.608 705.255,164.838L613.084,301.488C607.1,299.163 601.016,297.039 594.842,295.123Z" style="fill:#ffa0aa;"/><path d="M484.91,684.032C490.812,675.38 500.747,669.696 512,669.696C523.253,669.696 533.188,675.38 539.09,684.032L484.91,684.032ZM544.768,702.464C544.768,718.087 533.811,731.172 519.168,734.444L519.168,728.827C522.268,726.596 524.288,722.956 524.288,718.848C524.288,712.066 518.782,706.56 512,706.56C505.218,706.56 499.712,712.066 499.712,718.848C499.712,722.956 501.732,726.596 504.832,728.827L504.832,734.444C490.189,731.172 479.232,718.087 479.232,702.464L544.768,702.464Z" style="fill:#e1e14b;"/></g></g></g></svg>