<?xml version="1.0" encoding="UTF-8" standalone="no"?><!DOCTYPE svg PUBLIC "-//W3C//DTD SVG 1.1//EN" "http://www.w3.org/Graphics/SVG/1.1/DTD/svg11.dtd"><svg width="1024px" height="1024px" version="1.1" xmlns="http://www.w3.org/2000/svg" xmlns:xlink="http://www.w3.org/1999/xlink" xml:space="preserve" xmlns:serif="http://www.serif.com/" style="fill-rule:evenodd;clip-rule:evenodd;stroke-linejoin:round;stroke-miterlimit:2;"><rect id="le-flat-fit-blue-white" x="0" y="0" width="1024" height="1024" style="fill:#fff;"/><rect id="le-flat-fill-blue-transparent" x="102" y="102" width="820" height="820" style="fill:none;"/><g id="le-flat-fill-blue-transparent1" serif:id="le-flat-fill-blue-transparent"><path d="M738.89,237.902C817.668,303.201 867.88,401.783 867.88,512C867.88,708.416 708.416,867.88 512,867.88C315.584,867.88 156.12,708.416 156.12,512C156.12,404.197 204.157,307.525 279.974,242.24C281.268,196.299 318.969,159.4 365.22,159.4C380.943,159.4 395.892,163.706 408.76,171.351C441.441,161.446 476.103,156.12 512,156.12C538.103,156.12 563.554,158.936 588.064,164.282L589.154,160.927C600.571,125.79 633.314,102 670.26,102C717.327,102 755.54,140.213 755.54,187.28C755.54,205.545 749.678,223.278 738.89,237.902Z" style="fill:#1e2d46;"/><path d="M442.324,208.233C464.729,203.108 488.051,200.4 512,200.4C533.333,200.4 554.168,202.548 574.301,206.641L534.405,329.427C527.036,328.695 519.562,328.32 512,328.32C501.355,328.32 490.883,329.063 480.634,330.5L446.774,219.747C445.556,215.763 444.064,211.919 442.324,208.233ZM293.152,290.275C295.18,293.481 297.43,296.563 299.892,299.497L368.054,380.73C319.194,421.794 288.14,483.361 288.14,552.18L288.14,728.664C233.837,672.572 200.4,596.16 200.4,512C200.4,425.281 235.902,346.788 293.152,290.275ZM735.86,728.664L735.86,552.18C735.86,473.25 695.011,403.86 633.3,364L710.561,271.924C779.593,329.098 823.6,415.45 823.6,512C823.6,596.16 790.163,672.572 735.86,728.664Z" style="fill:#87b4ff;"/><path d="M325.86,552.18C325.86,449.378 409.198,366.04 512,366.04C614.802,366.04 698.14,449.378 698.14,552.18L698.14,761.846C646.188,800.629 581.756,823.6 512,823.6C442.244,823.6 377.812,800.629 325.86,761.846L325.86,552.18ZM444.35,435.74C439.145,435.74 434.92,439.965 434.92,445.17C434.92,450.375 439.145,454.6 444.35,454.6C449.555,454.6 453.78,450.375 453.78,445.17C453.78,439.965 449.555,435.74 444.35,435.74ZM579.65,435.74C574.445,435.74 570.22,439.965 570.22,445.17C570.22,450.375 574.445,454.6 579.65,454.6C584.855,454.6 589.08,450.375 589.08,445.17C589.08,439.965 584.855,435.74 579.65,435.74ZM471.007,663.755C471.002,664.01 471,664.265 471,664.52C471,687.149 489.371,705.52 512,705.52C534.629,705.52 553,687.149 553,664.52C553,664.265 552.998,664.01 552.993,663.755C555.426,662.548 557.1,660.038 557.1,657.14C557.1,653.251 554.085,650.06 550.266,649.78C544.341,634.425 529.434,623.52 512,623.52C494.566,623.52 479.659,634.425 473.734,649.78C469.915,650.06 466.9,653.251 466.9,657.14C466.9,660.038 468.574,662.548 471.007,663.755ZM512.034,524.931L538.73,551.627C541.61,554.507 546.287,554.507 549.167,551.627C552.047,548.747 552.047,544.07 549.167,541.19L519.38,511.403L519.38,496.469C529.356,494.325 536.6,487.951 536.6,480.43C536.6,471.152 525.577,463.62 512,463.62C498.423,463.62 487.4,471.152 487.4,480.43C487.4,487.951 494.644,494.325 504.62,496.469L504.62,511.471L484.418,531.673C481.538,534.553 481.538,539.23 484.418,542.11C487.299,544.99 491.975,544.99 494.855,542.11L512.034,524.931Z" style="fill:#fff;"/><path d="M698.131,717.29C698.134,717.288 698.137,717.285 698.14,717.282L698.14,761.846C646.188,800.629 581.756,823.6 512,823.6C442.244,823.6 377.812,800.629 325.86,761.846L325.86,717.282C375.07,761.937 440.381,789.16 512,789.16C569.386,789.16 622.723,771.681 666.971,741.762L666.971,552.18C666.971,449.378 597.588,366.04 512,366.04C614.802,366.04 698.14,449.378 698.14,552.18L698.131,552.18L698.131,717.29Z" style="fill:#cdcdcd;fill-opacity:0.5;"/><path d="M399.002,358.93L328.787,275.251C321.6,266.685 317.66,255.861 317.66,244.68C317.66,218.431 338.971,197.12 365.22,197.12C386.131,197.12 404.588,210.778 410.702,230.775L443.767,338.926C428.017,343.968 413.023,350.708 399.002,358.93Z" style="fill:#fff;"/><path d="M571.797,336.409L625.028,172.583C631.395,152.987 649.656,139.72 670.26,139.72C696.509,139.72 717.82,161.031 717.82,187.28C717.82,198.461 713.88,209.285 706.693,217.851L599.194,345.963C590.338,342.21 581.192,339.011 571.797,336.409Z" style="fill:#fff;"/><path d="M409.591,353.099L369.955,298.545C367.411,295.043 366.04,290.825 366.04,286.495C366.04,275.181 375.226,265.995 386.54,265.995C394.766,265.995 402.196,270.913 405.41,278.485L432.707,342.792C424.777,345.8 417.062,349.245 409.591,353.099Z" style="fill:#ffa0aa;"/><path d="M578.338,338.329L630.89,214.525C634.104,206.953 641.534,202.035 649.76,202.035C661.074,202.035 670.26,211.221 670.26,222.535C670.26,226.62 669.04,230.612 666.755,233.999L592.946,343.426C588.154,341.564 583.283,339.863 578.338,338.329Z" style="fill:#ffa0aa;"/><path d="M490.307,649.76C495.033,642.832 502.989,638.28 512,638.28C521.011,638.28 528.967,642.832 533.693,649.76L490.307,649.76ZM538.24,664.52C538.24,677.031 529.465,687.508 517.74,690.129L517.74,685.631C520.222,683.844 521.84,680.929 521.84,677.64C521.84,672.209 517.431,667.8 512,667.8C506.569,667.8 502.16,672.209 502.16,677.64C502.16,680.929 503.778,683.844 506.26,685.631L506.26,690.129C494.535,687.508 485.76,677.031 485.76,664.52L538.24,664.52Z" style="fill:#e1e14b;"/></g></svg>