<svg width="1000" height="1000" viewBox="0 0 1000 1000" fill="none" xmlns="http://www.w3.org/2000/svg">
<g clip-path="url(#clip0_2_294)">
<rect width="1000" height="1000" fill="white"/>
<g clip-path="url(#clip1_2_294)">
<circle cx="500" cy="500" r="434" fill="#87B4FF"/>
<path fill-rule="evenodd" clip-rule="evenodd" d="M315.332 70.1544C330.725 69.314 346.113 71.906 360.381 77.7433C374.649 83.5806 387.442 92.5168 397.832 103.905C408.222 115.294 415.949 128.85 420.456 143.592H420.458L467.237 296.601L374.434 324.973L337.751 355.755L241.333 240.849C231.424 229.039 224.263 215.174 220.371 200.258C216.479 185.342 215.952 169.746 218.827 154.601C221.702 139.455 227.909 125.139 236.997 112.687C246.085 100.235 257.829 89.9586 271.377 82.6026C284.925 75.2467 299.939 70.9948 315.332 70.1544ZM654.869 7.23643C669.141 1.6145 684.48 -0.781464 699.787 0.221778C715.094 1.22505 729.989 5.60247 743.405 13.0392C756.821 20.4759 768.426 30.7883 777.389 43.2374C786.351 55.6865 792.448 69.9644 795.243 85.047C798.038 100.129 797.463 115.644 793.557 130.478C789.652 145.31 782.514 159.095 772.656 170.845L772.662 170.85L631.249 339.379L604.792 317.179L523.002 290.605L594.076 71.8614H594.075C598.815 57.2728 606.724 43.9131 617.234 32.7403C627.745 21.5675 640.597 12.8584 654.869 7.23643ZM692.982 104.012L692.99 104.003L692.986 104L692.982 104.012Z" fill="#FFA0AA"/>
<path fill-rule="evenodd" clip-rule="evenodd" d="M654.871 7.23649C669.143 1.61466 684.482 -0.781333 699.789 0.221845C715.095 1.22515 729.991 5.60264 743.407 13.0392C756.823 20.4759 768.428 30.7885 777.39 43.2375C786.352 55.6866 792.449 69.9644 795.245 85.047C798.04 100.13 797.465 115.644 793.559 130.478C789.654 145.31 782.516 159.095 772.658 170.845L772.664 170.85L647.906 319.529C664.074 329.952 679.215 342.131 693.028 355.944C744.225 407.141 772.988 476.58 772.988 548.984V837.382C698.421 897.792 603.431 933.983 499.988 933.984C396.545 933.984 301.555 897.792 226.988 837.382V548.984C226.988 476.58 255.751 407.141 306.948 355.944C312.568 350.323 318.407 344.973 324.447 339.902L241.333 240.85L321.002 173.999L241.333 240.849C231.424 229.04 224.263 215.174 220.371 200.258C216.479 185.342 215.952 169.746 218.827 154.601C221.702 139.456 227.909 125.139 236.997 112.687C246.085 100.235 257.829 89.9586 271.377 82.6027C284.925 75.2468 299.939 70.9949 315.332 70.1545C330.725 69.3141 346.112 71.9062 360.381 77.7433C374.649 83.5806 387.442 92.5169 397.832 103.905C408.222 115.294 415.95 128.851 420.457 143.593L461.756 278.673C474.349 276.892 487.122 275.984 499.988 275.984C509.153 275.984 518.27 276.445 527.309 277.354L594.078 71.8615H594.077C598.817 57.2729 606.726 43.9132 617.236 32.7404C627.746 21.5676 640.599 12.8585 654.871 7.23649ZM347.001 225.001L326.775 239.695L375.108 306.22C384.268 301.508 393.683 297.319 403.309 293.674L370.013 215.233L347.001 225.001ZM670.013 122.08C666.54 121.799 663.046 122.248 659.756 123.397C656.466 124.546 653.451 126.37 650.908 128.752C648.365 131.134 646.347 134.023 644.985 137.231L656.317 142.04V142.041L644.985 137.232L580.884 288.243C586.893 290.108 592.832 292.18 598.693 294.452L688.723 160.979L678.3 153.948V153.947L688.723 160.979C690.672 158.09 691.995 154.824 692.608 151.394C693.221 147.963 693.109 144.442 692.281 141.057C691.453 137.672 689.925 134.497 687.798 131.736C685.67 128.977 682.989 126.691 679.926 125.028C676.864 123.366 673.487 122.361 670.013 122.08ZM355.037 201.327C351.702 200.195 348.165 199.781 344.659 200.111C341.153 200.44 337.755 201.507 334.69 203.241C331.625 204.976 328.96 207.338 326.872 210.174C324.783 213.009 323.317 216.254 322.57 219.695C321.823 223.137 321.811 226.698 322.536 230.145C323.261 233.591 324.705 236.846 326.775 239.695L347.001 225L370.013 215.232C368.637 211.99 366.591 209.075 364.01 206.679C361.43 204.283 358.371 202.459 355.037 201.327ZM692.984 104.012L692.992 104.003L692.988 104L692.984 104.012Z" fill="white"/>
<path fill-rule="evenodd" clip-rule="evenodd" d="M315.331 70.1534C330.724 69.3131 346.112 71.9053 360.38 77.7423C374.648 83.5795 387.441 92.516 397.831 103.904C408.221 115.293 415.948 128.849 420.455 143.591H420.457L461.761 278.691C474.356 276.909 487.131 276 499.999 276C509.162 276 518.279 276.461 527.316 277.369L594.09 71.8614L637.839 86.0763L572.907 285.914C584.289 289.069 595.446 292.957 606.306 297.549L737.431 141.281L772.669 170.85L647.905 319.537C664.078 329.962 679.223 342.144 693.039 355.96C744.236 407.157 772.999 476.596 772.999 548.999V837.398C747.267 858.244 719.103 876.206 688.999 890.792C631.866 918.474 567.746 933.999 499.999 933.999C416.786 933.999 339.042 910.578 272.999 869.971C256.945 860.099 241.582 849.211 226.999 837.398V548.999C227 476.596 255.762 407.157 306.959 355.96C312.58 350.339 318.421 344.989 324.461 339.917L241.332 240.849C231.423 229.04 224.263 215.174 220.37 200.258C216.478 185.342 215.951 169.745 218.826 154.6C221.702 139.455 227.909 125.137 236.997 112.686C246.086 100.234 257.829 89.9575 271.376 82.6017C284.924 75.246 299.939 70.9939 315.331 70.1534ZM272.999 750.43C332.994 804.844 412.624 837.999 499.999 837.999C570.01 837.999 635.05 816.713 688.999 780.26V549H272.999V750.43ZM499.999 321.999C470.19 321.999 440.671 327.871 413.13 339.278C385.59 350.686 360.564 367.407 339.486 388.485C318.407 409.564 301.686 434.589 290.279 462.13C278.871 489.671 272.999 519.189 272.999 548.999H688.999C688.999 519.189 684.111 489.671 674.613 462.13C665.114 434.589 651.193 409.564 633.643 388.485C616.093 367.407 595.257 350.686 572.326 339.278C549.754 328.049 525.586 322.184 501.162 322.003L499.999 321.999ZM342.963 120.317C335.006 117.062 326.424 115.616 317.839 116.085C309.255 116.554 300.882 118.925 293.326 123.027C285.771 127.13 279.221 132.861 274.153 139.805C269.084 146.749 265.623 154.734 264.019 163.18C262.415 171.626 262.71 180.324 264.88 188.643C267.051 196.961 271.044 204.694 276.57 211.279H276.571L362.201 313.33C379.468 303.235 397.782 295.073 416.806 288.985L376.467 157.04L393.706 151.77L376.466 157.04C373.952 148.819 369.643 141.258 363.849 134.907C358.055 128.556 350.92 123.573 342.963 120.317ZM654.883 7.23546C669.155 1.61372 684.495 -0.781328 699.801 0.221786C715.108 1.22508 730.004 5.60157 743.42 13.0382C756.836 20.4749 768.442 30.7884 777.404 43.2374C786.366 55.6864 792.463 69.9646 795.258 85.047C798.053 100.129 797.478 115.644 793.573 130.478C789.667 145.311 782.528 159.098 772.668 170.849L737.43 141.28C742.929 134.727 746.91 127.038 749.088 118.766C751.266 110.493 751.587 101.841 750.029 93.4298C748.47 85.0184 745.069 77.0551 740.071 70.1124C735.073 63.1698 728.6 57.4179 721.118 53.2706C713.637 49.1235 705.329 46.6827 696.793 46.1232C688.257 45.5637 679.702 46.9001 671.742 50.0353C663.783 53.1705 656.616 58.0282 650.754 64.2589C644.893 70.4896 640.482 77.9399 637.838 86.0753L594.09 71.8614C598.83 57.2729 606.739 43.9131 617.249 32.7403C627.76 21.5678 640.611 12.8574 654.883 7.23546Z" fill="#CDCDCD" fill-opacity="0.5"/>
<circle cx="417.5" cy="418.5" r="11.5" fill="#1E2D46"/>
<circle cx="582.5" cy="418.5" r="11.5" fill="#1E2D46"/>
<path fill-rule="evenodd" clip-rule="evenodd" d="M500 441C516.569 441 530 450.178 530 461.5C530 470.679 521.172 478.448 509 481.061V499.271L545.327 535.598C548.841 539.112 548.841 544.811 545.327 548.326C541.812 551.841 536.113 551.841 532.598 548.326L500.041 515.769L479.092 536.72C475.578 540.234 469.878 540.234 466.364 536.72C462.849 533.205 462.849 527.506 466.364 523.991L491 499.354V481.061C478.829 478.448 470 470.679 470 461.5C470 450.178 483.432 441 500 441Z" fill="#1E2D46"/>
<path fill-rule="evenodd" clip-rule="evenodd" d="M654.882 7.23587C669.154 1.61403 684.494 -0.780884 699.8 0.2222C715.107 1.22545 730.003 5.60201 743.419 13.0386C756.836 20.4753 768.441 30.7888 777.403 43.2378C786.365 55.6869 792.462 69.9649 795.257 85.0474C798.053 100.13 797.477 115.644 793.572 130.478C790.226 143.187 784.504 155.126 776.734 165.675C837.544 216.01 883.658 282.141 909.796 357.094C939.783 443.085 941.96 536.33 916.019 623.627C891.016 707.764 841.115 782.265 773.001 837.38V837.397C758.419 849.211 743.056 860.099 727.001 869.97V869.9C663.092 909.121 589.859 931.259 514.388 933.762C429.28 936.585 345.358 914.306 273.001 869.901V869.97C256.947 860.099 241.584 849.211 227.001 837.397V837.383C166.622 788.527 120.262 724.19 93.0874 650.925C61.4179 565.54 57.4102 472.356 81.6323 384.567C104.584 301.383 151.78 227.037 217.048 170.919C217.21 165.457 217.801 160 218.826 154.6C221.701 139.455 227.908 125.138 236.997 112.686C246.085 100.234 257.828 89.958 271.375 82.6021C284.923 75.2463 299.938 70.9944 315.331 70.1538C330.723 69.3135 346.111 71.9057 360.379 77.7427C365.162 79.6994 369.779 82.0056 374.195 84.6343C445.147 63.1441 520.388 60.1986 592.737 76.024L594.089 71.8618L637.838 86.0767L572.907 285.914C584.29 289.068 595.446 292.957 606.306 297.548L737.43 141.282L746.089 148.547L737.429 141.281C742.928 134.728 746.909 127.039 749.087 118.766C751.265 110.494 751.587 101.841 750.028 93.4302C748.469 85.0188 745.068 77.0556 740.07 70.1128C735.072 63.1703 728.6 57.4184 721.118 53.271C713.636 49.1239 705.328 46.6831 696.792 46.1236C688.256 45.5642 679.701 46.9004 671.742 50.0357C663.782 53.171 656.615 58.0285 650.753 64.2593C644.892 70.4901 640.481 77.9401 637.837 86.0757L594.089 71.8618C598.83 57.2732 606.738 43.9136 617.249 32.7408C627.759 21.5681 640.61 12.8579 654.882 7.23587ZM500.001 322C439.798 322 382.058 345.915 339.488 388.486C297.25 430.724 273.377 487.895 273.006 547.589L273.001 549V804.749C277.968 808.448 283.033 812.033 288.194 815.498C354.397 859.942 432.904 882.435 512.598 879.792C590.097 877.221 664.9 851.004 727.001 804.745V549L726.998 547.589C726.627 487.894 702.753 430.724 660.515 388.486C617.944 345.915 560.205 322 500.001 322ZM233.074 229.538C185.835 276.158 151.459 334.517 133.687 398.929C112.479 475.795 115.988 557.386 143.717 632.147C162.124 681.773 190.583 726.72 227.001 764.334V548.999C227.002 476.595 255.764 407.157 306.961 355.959C312.582 350.339 318.422 344.99 324.461 339.918L241.332 240.849C238.32 237.26 235.563 233.479 233.074 229.538ZM647.905 319.537C664.078 329.961 679.225 342.143 693.042 355.959C744.239 407.157 773.001 476.595 773.001 548.999V764.329C815.349 720.592 846.763 667.112 864.256 608.245C886.97 531.81 885.064 450.166 858.808 374.875C835.905 309.199 795.487 251.261 742.185 207.177L647.905 319.537ZM342.962 120.318C335.005 117.063 326.423 115.617 317.838 116.085C309.254 116.554 300.881 118.926 293.326 123.028C285.77 127.13 279.22 132.861 274.152 139.805C269.084 146.749 265.622 154.734 264.018 163.18C262.415 171.626 262.709 180.325 264.879 188.643C267.05 196.961 271.043 204.694 276.569 211.28H276.57L362.2 313.331C379.467 303.235 397.781 295.073 416.805 288.986L376.466 157.041L393.706 151.77L376.465 157.041C373.952 148.819 369.642 141.259 363.848 134.908C358.054 128.557 350.919 123.573 342.962 120.318ZM575.955 127.671C522.743 116.816 467.874 117.5 415.05 129.616C417.179 134.127 418.988 138.796 420.455 143.591H420.457L461.76 278.691C474.356 276.909 487.132 276 500.001 276C509.164 276 518.279 276.46 527.315 277.369L575.955 127.671Z" fill="#1E2D46"/>
<circle cx="500" cy="686" r="50" fill="#1E2D46"/>
<path d="M500 636C527.614 636 550 658.386 550 686C550 711.239 531.3 732.108 507 735.513V711.743C510.027 709.565 512 706.014 512 702C512 695.373 506.627 690 500 690C493.373 690 488 695.373 488 702C488 706.014 489.973 709.565 493 711.743V735.513C468.7 732.108 450 711.239 450 686C450 658.386 472.386 636 500 636Z" fill="#E1E14B"/>
<path d="M500 636C521.279 636 539.452 649.293 546.671 668.027C551.328 668.371 555 672.255 555 677C555 680.537 552.958 683.595 549.99 685.066C549.996 685.377 550 685.688 550 686C550 711.239 531.3 732.108 507 735.513V717.229C521.306 714.037 532 701.268 532 686H468C468 701.268 478.694 714.037 493 717.229V735.513C468.7 732.108 450 711.239 450 686C450 685.688 450.003 685.377 450.009 685.066C447.041 683.595 445 680.537 445 677C445 672.256 448.671 668.371 453.328 668.027C460.547 649.293 478.721 636 500 636ZM500 654C489.002 654 479.3 659.549 473.54 668H526.46C520.7 659.549 510.998 654 500 654Z" fill="#1E2D46"/>
</g>
</g>
<defs>
<clipPath id="clip0_2_294">
<rect width="1000" height="1000" fill="white"/>
</clipPath>
<clipPath id="clip1_2_294">
<rect width="1000" height="1000" fill="white"/>
</clipPath>
</defs>
</svg>
