<?xml version="1.0" encoding="UTF-8"?>
<!--Generator: Apple Native CoreSVG 232.5-->
<!DOCTYPE svg
PUBLIC "-//W3C//DTD SVG 1.1//EN"
       "http://www.w3.org/Graphics/SVG/1.1/DTD/svg11.dtd">
<svg version="1.1" xmlns="http://www.w3.org/2000/svg" xmlns:xlink="http://www.w3.org/1999/xlink" width="17.9785" height="17.998">
 <g>
  <rect height="17.998" opacity="0" width="17.9785" x="0" y="0"/>
  <path d="M3.06641 17.998L14.9121 17.998C16.9629 17.998 17.9785 16.9824 17.9785 14.9707L17.9785 3.04688C17.9785 1.03516 16.9629 0.0195312 14.9121 0.0195312L3.06641 0.0195312C1.02539 0.0195312 0 1.02539 0 3.04688L0 14.9707C0 16.9922 1.02539 17.998 3.06641 17.998Z" fill="#000000" fill-opacity="0.5"/>
  <path d="M12.1484 11.4941C11.6992 11.4941 11.4062 11.1816 11.4062 10.7031L11.4062 8.97461L11.5527 7.40234L10.0977 8.95508L6.41602 12.6465C6.26953 12.793 6.07422 12.8809 5.83008 12.8809C5.39062 12.8809 5.09766 12.5879 5.09766 12.1289C5.09766 11.9336 5.18555 11.7285 5.33203 11.582L9.0332 7.89062L10.6055 6.42578L9.11133 6.58203L7.29492 6.58203C6.80664 6.58203 6.49414 6.28906 6.49414 5.84961C6.49414 5.40039 6.79688 5.10742 7.27539 5.10742L12.041 5.10742C12.5586 5.10742 12.8906 5.3418 12.8906 5.9375L12.8906 10.6836C12.8906 11.1523 12.5879 11.4941 12.1484 11.4941Z" fill="#ffffff"/>
 </g>
</svg>
