<?xml version="1.0" encoding="UTF-8"?>
<!--Generator: Apple Native CoreSVG 232.5-->
<!DOCTYPE svg
PUBLIC "-//W3C//DTD SVG 1.1//EN"
       "http://www.w3.org/Graphics/SVG/1.1/DTD/svg11.dtd">
<svg version="1.1" xmlns="http://www.w3.org/2000/svg" xmlns:xlink="http://www.w3.org/1999/xlink" width="24.1279" height="22.2949">
 <g>
  <rect height="22.2949" opacity="0" width="24.1279" x="0" y="0"/>
  <path d="M0 19.3652C0 20.8691 0.722656 21.6113 2.22656 21.6113L15.5664 21.6113C17.0605 21.6113 17.793 20.8691 17.793 19.3652L17.793 2.25586C17.793 0.751953 17.0605 0 15.5664 0L13.6523 0C12.1582 0 11.4258 0.751953 11.4258 2.25586L11.4258 6.13281C11.2109 6.08398 10.957 6.04492 10.6836 6.04492L6.42578 6.04492C6.14258 6.04492 5.89844 6.08398 5.67383 6.13281L5.67383 4.96094C5.67383 3.45703 4.95117 2.70508 3.45703 2.70508L2.22656 2.70508C0.722656 2.70508 0 3.45703 0 4.96094ZM1.47461 19.248L1.47461 5.06836C1.47461 4.49219 1.77734 4.17969 2.38281 4.17969L3.30078 4.17969C3.90625 4.17969 4.19922 4.49219 4.19922 5.06836L4.19922 20.1367L2.38281 20.1367C1.77734 20.1367 1.47461 19.8242 1.47461 19.248ZM5.67383 20.1367L5.67383 8.4082C5.67383 7.83203 5.97656 7.51953 6.58203 7.51953L10.5273 7.51953C11.1328 7.51953 11.4258 7.83203 11.4258 8.4082L11.4258 20.1367ZM12.9004 20.1367L12.9004 2.36328C12.9004 1.78711 13.2031 1.47461 13.8086 1.47461L15.4102 1.47461C16.0254 1.47461 16.3184 1.78711 16.3184 2.36328L16.3184 19.248C16.3184 19.8242 16.0254 20.1367 15.4102 20.1367ZM6.5625 9.41406C6.5625 9.75586 6.81641 10.0195 7.17773 10.0195L9.95117 10.0195C10.293 10.0195 10.5566 9.75586 10.5566 9.41406C10.5566 9.08203 10.293 8.81836 9.95117 8.81836L7.17773 8.81836C6.81641 8.81836 6.5625 9.08203 6.5625 9.41406ZM6.5625 18.2422C6.5625 18.584 6.81641 18.8477 7.17773 18.8477L9.95117 18.8477C10.293 18.8477 10.5566 18.584 10.5566 18.2422C10.5566 17.9102 10.293 17.6465 9.95117 17.6465L7.17773 17.6465C6.81641 17.6465 6.5625 17.9102 6.5625 18.2422ZM18.6719 19.6387C18.8574 21.123 19.6484 21.8164 21.1426 21.6113L22.1582 21.4746C23.6523 21.2695 24.2676 20.4785 24.1016 18.9941L22.4219 4.39453C22.2461 2.91016 21.4453 2.20703 19.9512 2.42188L18.9355 2.55859C17.4316 2.77344 16.8066 3.55469 16.9824 5.03906ZM20.1172 19.3457L18.4668 4.98047C18.3984 4.4043 18.6621 4.08203 19.2676 3.99414L19.9707 3.90625C20.5762 3.81836 20.9082 4.11133 20.9766 4.67773L22.627 19.043C22.6953 19.6289 22.4316 19.9414 21.8359 20.0293L21.1133 20.127C20.5176 20.2148 20.1855 19.9316 20.1172 19.3457Z" fill="#000000" fill-opacity="0.85"/>
 </g>
</svg>
