<?xml version="1.0" encoding="UTF-8"?>
<!--Generator: Apple Native CoreSVG 232.5-->
<!DOCTYPE svg
PUBLIC "-//W3C//DTD SVG 1.1//EN"
       "http://www.w3.org/Graphics/SVG/1.1/DTD/svg11.dtd">
<svg version="1.1" xmlns="http://www.w3.org/2000/svg" xmlns:xlink="http://www.w3.org/1999/xlink" width="25.7031" height="21.6113">
 <g>
  <rect height="21.6113" opacity="0" width="25.7031" x="0" y="0"/>
  <path d="M0 10.0586C0 13.623 2.44141 15.9863 6.10352 15.9863C9.70703 15.9863 12.1191 13.8672 12.1191 10.6738C12.1191 9.3457 11.6504 8.27148 10.8691 7.59766C10.5078 7.30469 10.3027 7.19727 9.96094 7.19727C9.51172 7.19727 9.19922 7.4707 9.19922 7.87109C9.19922 8.35938 9.48242 8.48633 9.93164 8.89648C10.3418 9.29688 10.5762 9.90234 10.5762 10.6445C10.5762 12.9102 8.79883 14.4238 6.13281 14.4238C3.39844 14.4238 1.57227 12.6758 1.57227 10.0488C1.57227 8.54492 2.33398 7.12891 3.58398 6.31836L2.80273 4.96094C1.06445 6.04492 0 7.98828 0 10.0586ZM2.63672 4.9707C2.63672 7.1582 4.15039 8.70117 6.54297 8.70117C6.96289 8.70117 7.32422 8.34961 7.32422 7.91992C7.32422 7.49023 6.96289 7.12891 6.54297 7.12891C5.09766 7.12891 4.20898 6.2207 4.20898 4.9707C4.20898 3.58398 5.35156 2.61719 6.88477 2.61719C7.59766 2.61719 8.35938 2.83203 9.0625 3.31055L9.98047 2.03125C9.00391 1.34766 7.91992 1.04492 6.89453 1.04492C4.53125 1.04492 2.63672 2.65625 2.63672 4.9707ZM7.8418 4.70703C7.82227 5.21484 8.16406 5.55664 8.61328 5.55664C9.04297 5.55664 9.375 5.27344 9.39453 4.77539C9.46289 2.91992 10.8105 1.5625 12.7051 1.5625C13.8477 1.5625 14.8438 2.16797 15.2441 3.06641C15.3223 3.21289 15.4297 3.22266 15.6152 3.16406C15.9375 3.07617 16.2988 3.02734 16.6504 3.02734C18.3984 3.04688 20.0586 4.36523 20.0586 6.46484C20.0586 11.0547 13.6133 10.4199 13.6133 14.8926C13.6133 17.0215 15.3027 18.3594 17.4902 18.3594C17.7246 18.3594 17.9785 18.3398 18.2324 18.3301C18.457 19.9902 19.502 21.6016 21.1914 21.6016C23.6328 21.6016 24.8242 18.6328 24.8242 15.7422C24.8242 14.4824 24.7559 13.6328 24.668 12.832L23.0957 13.2715C23.1836 14.0527 23.2617 14.7852 23.2617 15.7227C23.2617 18.0957 22.3633 20.0293 21.1914 20.0293C19.9805 20.0293 19.4922 18.418 19.4922 17.1387C19.4922 17.0312 19.4336 16.9629 19.2969 16.9727C19.0234 16.9727 18.6523 16.9824 18.4082 16.9824C16.4648 16.9824 15.1855 16.377 15.1855 14.8633C15.1855 11.2988 21.6309 12.0996 21.6309 6.46484C21.6309 3.45703 19.4043 1.45508 16.8555 1.45508C16.6602 1.45508 16.3867 1.49414 16.1133 1.55273C15.332 0.585938 14.082 0 12.7148 0C9.94141 0 7.95898 1.94336 7.8418 4.70703ZM19.3262 14.2871C19.3262 14.7266 19.6777 15.0391 20.1172 15.0684C23.4668 15.2832 25.7031 13.3203 25.7031 10.1465C25.7031 7.54883 23.8574 5.56641 21.084 5.19531L20.8398 6.75781C22.8125 6.78711 24.1309 8.13477 24.1309 10.1465C24.1309 12.3438 22.5195 13.6914 20.1172 13.5059C19.6777 13.4668 19.3262 13.8574 19.3262 14.2871ZM14.3066 15.5566C13.7305 15.7617 13.0566 15.8594 12.4219 15.8594C10.7715 15.8594 9.0918 15.2148 8.44727 14.2188L7.14844 15.2734C8.17383 16.5527 10.0293 17.4316 12.2559 17.4316C13.0566 17.4316 13.9551 17.3145 14.8438 17.0605ZM11.1719 8.66211L11.6992 10.1562C14.1602 9.66797 15.2637 8.125 15.2637 5.83984C15.2637 5.41016 14.9023 5.05859 14.4727 5.05859C14.043 5.05859 13.6914 5.41016 13.6914 5.83984C13.6914 7.45117 13.0078 8.39844 11.1719 8.66211Z" fill="#000000" fill-opacity="0.85"/>
 </g>
</svg>
