<?xml version="1.0" encoding="UTF-8"?>
<!--Generator: Apple Native CoreSVG 232.5-->
<!DOCTYPE svg
PUBLIC "-//W3C//DTD SVG 1.1//EN"
       "http://www.w3.org/Graphics/SVG/1.1/DTD/svg11.dtd">
<svg version="1.1" xmlns="http://www.w3.org/2000/svg" xmlns:xlink="http://www.w3.org/1999/xlink" width="27.2803" height="18.8379">
 <g>
  <rect height="18.8379" opacity="0" width="27.2803" x="0" y="0"/>
  <path d="M4.41895 15.3369C4.41895 17.5488 5.63477 18.7646 7.86621 18.7646L21.4697 18.7646C23.6963 18.7646 24.917 17.5537 24.917 15.3369L24.917 3.52051C24.917 1.29883 23.6963 0.0927734 21.4697 0.0927734L7.86621 0.0927734C5.63477 0.0927734 4.41895 1.30371 4.41895 3.52051ZM6.93848 15.1221L6.93848 3.73047C6.93848 2.95898 7.3291 2.6123 8.05664 2.6123L21.2891 2.6123C22.0166 2.6123 22.3975 2.95898 22.3975 3.73047L22.3975 15.1221C22.3975 15.8936 22.0166 16.2451 21.2891 16.2451L8.05664 16.2451C7.3291 16.2451 6.93848 15.8936 6.93848 15.1221Z" fill="#000000" fill-opacity="0.5"/>
  <path d="M1.49414 18.8135C2.22168 18.8135 2.79785 18.2275 2.79785 17.5049C2.79785 16.7822 2.22168 16.2012 1.49414 16.2012C0.771484 16.2012 0.19043 16.7822 0.19043 17.5049C0.19043 18.2275 0.771484 18.8135 1.49414 18.8135Z" fill="#000000" fill-opacity="0.25"/>
  <path d="M1.49414 14.7656C2.22168 14.7656 2.79785 14.1895 2.79785 13.4668C2.79785 12.7393 2.22168 12.1582 1.49414 12.1582C0.771484 12.1582 0.19043 12.7393 0.19043 13.4668C0.19043 14.1895 0.771484 14.7656 1.49414 14.7656Z" fill="#000000" fill-opacity="0.25"/>
  <path d="M1.49414 6.65527C2.22168 6.65527 2.79785 6.06934 2.79785 5.34668C2.79785 4.62402 2.22168 4.04297 1.49414 4.04297C0.771484 4.04297 0.19043 4.62402 0.19043 5.34668C0.19043 6.06934 0.771484 6.65527 1.49414 6.65527Z" fill="#000000" fill-opacity="0.25"/>
  <path d="M1.49414 2.60742C2.22168 2.60742 2.79785 2.03125 2.79785 1.29883C2.79785 0.576172 2.22168 0 1.49414 0C0.771484 0 0.19043 0.576172 0.19043 1.29883C0.19043 2.03125 0.771484 2.60742 1.49414 2.60742Z" fill="#000000" fill-opacity="0.25"/>
  <path d="M4.41895 11.7822L24.917 11.7822C26.2402 11.7822 27.2803 10.7422 27.2803 9.41895C27.2803 8.0957 26.2402 7.05566 24.917 7.05566L4.41895 7.05566C3.09082 7.05566 2.05566 8.0957 2.05566 9.41895C2.05566 10.7422 3.09082 11.7822 4.41895 11.7822Z" fill="#ffffff"/>
  <path d="M1.47461 10.8789C1.99219 10.8789 2.45605 10.6104 2.70996 10.2002L24.9121 10.2002C25.3613 10.2002 25.6934 9.86816 25.6934 9.41895C25.6934 8.96973 25.3613 8.64258 24.9121 8.64258L2.71973 8.64258C2.46582 8.22266 1.99219 7.94434 1.47461 7.94434C0.664062 7.94434 0 8.60352 0 9.41406C0 10.2246 0.664062 10.8789 1.47461 10.8789Z" fill="#ff3b30"/>
 </g>
</svg>
