<?xml version="1.0" encoding="UTF-8"?>
<!--Generator: Apple Native CoreSVG 232.5-->
<!DOCTYPE svg
PUBLIC "-//W3C//DTD SVG 1.1//EN"
       "http://www.w3.org/Graphics/SVG/1.1/DTD/svg11.dtd">
<svg version="1.1" xmlns="http://www.w3.org/2000/svg" xmlns:xlink="http://www.w3.org/1999/xlink" width="25.625" height="17.998">
 <g>
  <rect height="17.998" opacity="0" width="25.625" x="0" y="0"/>
  <path d="M4.14062 14.9707C4.14062 16.9824 5.15625 17.998 7.19727 17.998L20.5371 17.998C22.5781 17.998 23.6035 16.9922 23.6035 14.9707L23.6035 3.04688C23.6035 1.02539 22.5781 0.0195312 20.5371 0.0195312L7.19727 0.0195312C5.15625 0.0195312 4.14062 1.03516 4.14062 3.04688ZM5.71289 15.0586L5.71289 2.95898C5.71289 2.05078 6.20117 1.5918 7.07031 1.5918L20.6836 1.5918C21.5527 1.5918 22.0312 2.05078 22.0312 2.95898L22.0312 15.0586C22.0312 15.9668 21.5527 16.4258 20.6836 16.4258L7.07031 16.4258C6.20117 16.4258 5.71289 15.9668 5.71289 15.0586Z" fill="#000000" fill-opacity="0.85"/>
  <path d="M1.33789 17.9102C1.99219 17.9102 2.51953 17.373 2.51953 16.7188C2.51953 16.0645 1.99219 15.5371 1.33789 15.5371C0.683594 15.5371 0.146484 16.0645 0.146484 16.7188C0.146484 17.373 0.683594 17.9102 1.33789 17.9102Z" fill="#000000" fill-opacity="0.85"/>
  <path d="M1.33789 14.0332C1.99219 14.0332 2.51953 13.5059 2.51953 12.8516C2.51953 12.1875 1.99219 11.6602 1.33789 11.6602C0.683594 11.6602 0.146484 12.1875 0.146484 12.8516C0.146484 13.5059 0.683594 14.0332 1.33789 14.0332Z" fill="#000000" fill-opacity="0.85"/>
  <path d="M1.33789 6.29883C1.99219 6.29883 2.51953 5.76172 2.51953 5.10742C2.51953 4.45312 1.99219 3.92578 1.33789 3.92578C0.683594 3.92578 0.146484 4.45312 0.146484 5.10742C0.146484 5.76172 0.683594 6.29883 1.33789 6.29883Z" fill="#000000" fill-opacity="0.85"/>
  <path d="M1.33789 2.42188C1.99219 2.42188 2.51953 1.89453 2.51953 1.23047C2.51953 0.576172 1.99219 0.0488281 1.33789 0.0488281C0.683594 0.0488281 0.146484 0.576172 0.146484 1.23047C0.146484 1.89453 0.683594 2.42188 1.33789 2.42188Z" fill="#000000" fill-opacity="0.85"/>
  <path d="M4.14062 11.0254L23.6035 11.0254C24.7168 11.0254 25.625 10.1172 25.625 9.00391C25.625 7.89062 24.7168 6.98242 23.6035 6.98242L4.14062 6.98242C3.01758 6.98242 2.11914 7.89062 2.11914 9.00391C2.11914 10.1172 3.01758 11.0254 4.14062 11.0254Z" fill="#ffffff"/>
  <path d="M1.33789 10.3223C1.80664 10.3223 2.22656 10.0781 2.45117 9.69727L23.6035 9.69727C23.9844 9.69727 24.2969 9.38477 24.2969 9.00391C24.2969 8.62305 23.9844 8.32031 23.6035 8.32031L2.4707 8.32031C2.24609 7.91992 1.80664 7.66602 1.33789 7.66602C0.605469 7.66602 0 8.26172 0 8.99414C0 9.72656 0.605469 10.3223 1.33789 10.3223Z" fill="#55bef0"/>
 </g>
</svg>
