<?xml version="1.0" encoding="UTF-8"?>
<!--Generator: Apple Native CoreSVG 232.5-->
<!DOCTYPE svg
PUBLIC "-//W3C//DTD SVG 1.1//EN"
       "http://www.w3.org/Graphics/SVG/1.1/DTD/svg11.dtd">
<svg version="1.1" xmlns="http://www.w3.org/2000/svg" xmlns:xlink="http://www.w3.org/1999/xlink" width="27.1777" height="23.7109">
 <g>
  <rect height="23.7109" opacity="0" width="27.1777" x="0" y="0"/>
  <path d="M5.36621 23.7109L6.59668 23.7109C7.80273 23.7109 8.59375 23.0957 8.59375 22.0068C8.59375 21.2451 7.9248 20.6152 6.98242 20.459L6.98242 18.3447C6.98242 17.3291 7.11426 16.7041 7.49512 15.9717C9.01367 16.5527 10.3711 16.7871 11.8945 16.7871C13.4912 16.7871 15.1123 16.582 16.1377 16.3135C16.3232 16.8945 16.4844 17.666 16.4844 18.4082C16.4844 19.6338 16.3477 20.6641 16.3477 21.7822C16.3477 23.042 17.0166 23.7109 18.3398 23.7109L19.5166 23.7109C20.7031 23.7109 21.5186 23.0762 21.5186 22.0068C21.5186 21.1914 20.9131 20.6055 20.0488 20.4834L20.0488 19.2822C20.0488 13.8281 23.8867 15.7861 24.0723 8.84277C25.9033 8.61816 27.1777 7.44629 27.1777 6.48438C27.1777 5.14648 25.7568 3.76465 24.3213 2.69043C23.9404 1.45508 23.2764 0.532227 22.7979 0.532227C22.3096 0.532227 21.5918 1.45508 21.1426 2.67578C20.3418 3.31543 19.541 4.48242 19.0381 5.39062L18.7061 5.97168C18.3398 6.63574 17.9932 7.01172 17.5 7.01172C13.6963 7.01172 12.2754 6.45996 8.52539 6.45996C6.78223 6.45996 5.65918 7.0166 4.93164 7.78809C4.55078 8.19336 4.25293 8.34473 3.63281 8.05176C2.58301 7.57812 1.88477 6.50879 1.88477 5.1416C1.88477 3.21777 3.37402 1.91406 5.59082 1.91406C6.44531 1.91406 7.28516 2.08496 8.31543 2.5C9.60449 3.01758 10.2734 1.25 9.04785 0.737305C7.80762 0.244141 6.63086 0.0292969 5.59082 0.0292969C2.31445 0.0292969 0 2.14355 0 5.1416C0 7.33398 1.12305 9.07715 2.88086 9.81445C3.41309 10.0439 3.60352 10.4932 3.59863 10.9424C3.58398 11.4746 3.58398 11.8848 3.58398 12.1631C3.58398 15.3809 2.14355 15.7764 2.56348 17.4219L3.82812 22.3242C4.08203 23.3057 4.55078 23.7109 5.36621 23.7109ZM23.8867 5.83984C23.54 5.83984 23.2666 5.57617 23.2666 5.22949C23.2666 4.8877 23.54 4.61426 23.8867 4.61426C24.2236 4.61426 24.4971 4.8877 24.4971 5.22949C24.4971 5.57617 24.2236 5.83984 23.8867 5.83984Z" fill="#000000" fill-opacity="0.85"/>
 </g>
</svg>
