<?xml version="1.0" encoding="UTF-8"?>
<!--Generator: Apple Native CoreSVG 232.5-->
<!DOCTYPE svg
PUBLIC "-//W3C//DTD SVG 1.1//EN"
       "http://www.w3.org/Graphics/SVG/1.1/DTD/svg11.dtd">
<svg version="1.1" xmlns="http://www.w3.org/2000/svg" xmlns:xlink="http://www.w3.org/1999/xlink" width="23.6035" height="24.7363">
 <g>
  <rect height="24.7363" opacity="0" width="23.6035" x="0" y="0"/>
  <path d="M7.01172 11.2305L16.5918 11.2305C17.4609 11.2305 17.9688 10.7422 17.9688 9.88281L17.9688 2.90039C17.9688 2.04102 17.4609 1.54297 16.5918 1.54297L7.01172 1.54297C6.14258 1.54297 5.63477 2.04102 5.63477 2.90039L5.63477 9.88281C5.63477 10.7422 6.14258 11.2305 7.01172 11.2305Z" fill="#000000" fill-opacity="0.85"/>
  <path d="M5.52734 18.3105L18.0859 18.3105C20.0293 18.3105 21.3086 17.041 21.3086 15.1172L21.3086 5.98633C21.3086 4.05273 20.0293 2.79297 18.0859 2.79297L5.52734 2.79297C3.58398 2.79297 2.29492 4.05273 2.29492 5.98633L2.29492 15.1172C2.29492 17.041 3.58398 18.3105 5.52734 18.3105Z" fill="#ffffff"/>
  <path d="M5.41992 16.9824L18.1934 16.9824C19.3359 16.9824 19.9805 16.3477 19.9805 15.2246L19.9805 5.87891C19.9805 4.75586 19.3359 4.12109 18.1934 4.12109L5.41992 4.12109C4.27734 4.12109 3.62305 4.75586 3.62305 5.87891L3.62305 15.2246C3.62305 16.3477 4.27734 16.9824 5.41992 16.9824Z" fill="#000000" fill-opacity="0.85"/>
  <path d="M4.63867 24.7363L18.9648 24.7363C21.875 24.7363 23.6035 23.0273 23.6035 20.1367L23.6035 10.1074C23.6035 7.2168 21.875 5.50781 18.9648 5.50781L4.63867 5.50781C1.72852 5.50781 0 7.2168 0 10.1074L0 20.1367C0 23.0273 1.72852 24.7363 4.63867 24.7363Z" fill="#ffffff"/>
  <path d="M4.63867 23.1641L18.9648 23.1641C21.0059 23.1641 22.0312 22.1484 22.0312 20.1367L22.0312 10.1074C22.0312 8.0957 21.0059 7.08008 18.9648 7.08008L4.63867 7.08008C2.59766 7.08008 1.57227 8.0957 1.57227 10.1074L1.57227 20.1367C1.57227 22.1484 2.59766 23.1641 4.63867 23.1641Z" fill="#000000" fill-opacity="0.85"/>
  <path d="M10.5176 19.8926C10.1855 19.8926 9.91211 19.7656 9.64844 19.4238L7.20703 16.416C7.06055 16.2207 6.97266 15.9961 6.97266 15.7812C6.97266 15.332 7.31445 14.9707 7.75391 14.9707C8.03711 14.9707 8.25195 15.0684 8.49609 15.3906L10.4785 17.9492L14.6484 11.25C14.8242 10.9473 15.0781 10.8008 15.3418 10.8008C15.7715 10.8008 16.1719 11.0938 16.1719 11.543C16.1719 11.7676 16.0449 11.9922 15.9277 12.1875L11.3281 19.4238C11.1328 19.7363 10.8496 19.8926 10.5176 19.8926Z" fill="#ffffff"/>
 </g>
</svg>
