<?xml version="1.0" encoding="UTF-8"?>
<!--Generator: Apple Native CoreSVG 232.5-->
<!DOCTYPE svg
PUBLIC "-//W3C//DTD SVG 1.1//EN"
       "http://www.w3.org/Graphics/SVG/1.1/DTD/svg11.dtd">
<svg version="1.1" xmlns="http://www.w3.org/2000/svg" xmlns:xlink="http://www.w3.org/1999/xlink" width="22.618" height="20.625">
 <g>
  <rect height="20.625" opacity="0" width="22.618" x="0" y="0"/>
  <path d="M12.3055 20.625C17.9598 20.625 22.618 15.9717 22.618 10.3125C22.618 4.64844 17.9598 0 12.3055 0C6.67076 0 2.04186 4.59473 1.98814 10.2148L4.5565 10.2148C4.61021 5.96191 8.03795 2.57324 12.3055 2.57324C16.5975 2.57324 20.0497 6.02051 20.0497 10.3125C20.0497 14.6045 16.5975 18.0713 12.3055 18.0566C9.95689 18.0518 7.93053 17.0312 6.4901 15.3613C5.93834 14.8047 5.17662 14.6289 4.58092 15.127C4.03893 15.5859 3.99986 16.3672 4.5858 17.0508C6.30943 19.1846 9.35143 20.625 12.3055 20.625ZM0.855332 8.13965C-0.0138089 8.13965-0.22377 8.88672 0.240097 9.51172L2.93053 13.1055C3.27232 13.5547 3.85338 13.5498 4.19029 13.1055L6.87584 9.50684C7.32994 8.8916 7.12486 8.13965 6.26549 8.13965Z" fill="#000000" fill-opacity="0.85"/>
  <path d="M11.6415 4.47754C11.1337 4.47754 10.7235 4.8877 10.7235 5.39551L10.7235 10.9326C10.7235 11.167 10.7919 11.3916 10.9872 11.6357L13.3504 14.7607C13.7411 15.2686 14.2684 15.3564 14.7469 15.0342C15.1864 14.7314 15.2157 14.1748 14.8739 13.6963L11.4852 9.09668L12.5692 12.4365L12.5692 5.39551C12.5692 4.8877 12.1493 4.47754 11.6415 4.47754Z" fill="#000000" fill-opacity="0.85"/>
 </g>
</svg>
