<?xml version="1.0" encoding="UTF-8"?>
<!--Generator: Apple Native CoreSVG 232.5-->
<!DOCTYPE svg
PUBLIC "-//W3C//DTD SVG 1.1//EN"
       "http://www.w3.org/Graphics/SVG/1.1/DTD/svg11.dtd">
<svg version="1.1" xmlns="http://www.w3.org/2000/svg" xmlns:xlink="http://www.w3.org/1999/xlink" width="17.9785" height="17.998">
 <g>
  <rect height="17.998" opacity="0" width="17.9785" x="0" y="0"/>
  <path d="M3.06641 17.998L14.9121 17.998C16.9629 17.998 17.9785 16.9824 17.9785 14.9707L17.9785 3.04688C17.9785 1.03516 16.9629 0.0195312 14.9121 0.0195312L3.06641 0.0195312C1.02539 0.0195312 0 1.02539 0 3.04688L0 14.9707C0 16.9922 1.02539 17.998 3.06641 17.998ZM3.08594 16.4258C2.10938 16.4258 1.57227 15.9082 1.57227 14.8926L1.57227 3.125C1.57227 2.10938 2.10938 1.5918 3.08594 1.5918L14.8926 1.5918C15.8594 1.5918 16.4062 2.10938 16.4062 3.125L16.4062 14.8926C16.4062 15.9082 15.8594 16.4258 14.8926 16.4258Z" fill="#000000" fill-opacity="0.85"/>
  <path d="M6.69922 8.0957L6.69922 9.90234L5.9668 9.90234C4.81445 9.90234 3.89648 10.8203 3.89648 11.9531C3.89648 13.1055 4.81445 14.0332 5.9668 14.0332C7.09961 14.0332 8.03711 13.0957 8.03711 11.9531L8.03711 11.2109L9.81445 11.2109L9.81445 11.9531C9.81445 13.0957 10.7422 14.0332 11.8848 14.0332C13.0273 14.0332 13.9551 13.1055 13.9551 11.9531C13.9551 10.8203 13.0273 9.90234 11.8848 9.90234L11.1426 9.90234L11.1426 8.0957L11.8848 8.0957C13.0273 8.0957 13.9551 7.17773 13.9551 6.03516C13.9551 4.89258 13.0273 3.96484 11.8848 3.96484C10.7422 3.96484 9.81445 4.90234 9.81445 6.03516L9.81445 6.77734L8.03711 6.77734L8.03711 6.03516C8.03711 4.90234 7.09961 3.96484 5.9668 3.96484C4.81445 3.96484 3.89648 4.89258 3.89648 6.03516C3.89648 7.17773 4.81445 8.0957 5.9668 8.0957ZM8.03711 9.91211L8.03711 8.08594L9.81445 8.08594L9.81445 9.91211ZM5.9668 6.78711C5.54688 6.78711 5.21484 6.45508 5.21484 6.03516C5.21484 5.63477 5.55664 5.2832 5.9668 5.2832C6.36719 5.2832 6.69922 5.63477 6.69922 6.03516L6.69922 6.78711ZM11.8848 6.78711L11.1426 6.78711L11.1426 6.03516C11.1426 5.63477 11.4844 5.2832 11.8848 5.2832C12.2852 5.2832 12.6367 5.63477 12.6367 6.03516C12.6367 6.45508 12.2949 6.78711 11.8848 6.78711ZM5.9668 11.1914L6.69922 11.1914L6.69922 11.9434C6.69922 12.3633 6.36719 12.6953 5.9668 12.6953C5.54688 12.6953 5.21484 12.3633 5.21484 11.9434C5.21484 11.543 5.55664 11.1914 5.9668 11.1914ZM11.8848 11.1914C12.2852 11.1914 12.6367 11.543 12.6367 11.9434C12.6367 12.3633 12.2949 12.6953 11.8848 12.6953C11.4844 12.6953 11.1426 12.3633 11.1426 11.9434L11.1426 11.1914Z" fill="#000000" fill-opacity="0.85"/>
 </g>
</svg>
