<?xml version="1.0" encoding="UTF-8"?>
<!--Generator: Apple Native CoreSVG 232.5-->
<!DOCTYPE svg
PUBLIC "-//W3C//DTD SVG 1.1//EN"
       "http://www.w3.org/Graphics/SVG/1.1/DTD/svg11.dtd">
<svg version="1.1" xmlns="http://www.w3.org/2000/svg" xmlns:xlink="http://www.w3.org/1999/xlink" width="17.9785" height="17.998">
 <g>
  <rect height="17.998" opacity="0" width="17.9785" x="0" y="0"/>
  <path d="M3.06641 17.998L14.9121 17.998C16.9629 17.998 17.9785 16.9824 17.9785 14.9707L17.9785 3.04688C17.9785 1.03516 16.9629 0.0195312 14.9121 0.0195312L3.06641 0.0195312C1.02539 0.0195312 0 1.02539 0 3.04688L0 14.9707C0 16.9922 1.02539 17.998 3.06641 17.998Z" fill="#000000" fill-opacity="0.5"/>
  <path d="M6.63086 8.07617L5.87891 8.07617C4.6875 8.07617 3.74023 7.12891 3.74023 5.94727C3.74023 4.76562 4.6875 3.80859 5.87891 3.80859C7.05078 3.80859 8.01758 4.77539 8.01758 5.94727L8.01758 6.70898L9.83398 6.70898L9.83398 5.94727C9.83398 4.77539 10.791 3.80859 11.9727 3.80859C13.1543 3.80859 14.1113 4.76562 14.1113 5.94727C14.1113 7.12891 13.1543 8.07617 11.9727 8.07617L11.2109 8.07617L11.2109 9.92188L11.9727 9.92188C13.1543 9.92188 14.1113 10.8691 14.1113 12.041C14.1113 13.2324 13.1543 14.1895 11.9727 14.1895C10.791 14.1895 9.83398 13.2227 9.83398 12.041L9.83398 11.2793L8.01758 11.2793L8.01758 12.041C8.01758 13.2227 7.05078 14.1895 5.87891 14.1895C4.6875 14.1895 3.74023 13.2324 3.74023 12.041C3.74023 10.8691 4.6875 9.92188 5.87891 9.92188L6.63086 9.92188ZM8.01758 9.93164L9.83398 9.93164L9.83398 8.06641L8.01758 8.06641ZM5.87891 6.71875L6.63086 6.71875L6.63086 5.94727C6.63086 5.53711 6.28906 5.17578 5.87891 5.17578C5.45898 5.17578 5.10742 5.53711 5.10742 5.94727C5.10742 6.37695 5.44922 6.71875 5.87891 6.71875ZM11.9727 6.71875C12.3926 6.71875 12.7441 6.37695 12.7441 5.94727C12.7441 5.53711 12.3828 5.17578 11.9727 5.17578C11.5527 5.17578 11.2109 5.53711 11.2109 5.94727L11.2109 6.71875ZM5.87891 11.2598C5.45898 11.2598 5.10742 11.6211 5.10742 12.0312C5.10742 12.4609 5.44922 12.8027 5.87891 12.8027C6.28906 12.8027 6.63086 12.4609 6.63086 12.0312L6.63086 11.2598ZM11.9727 11.2598L11.2109 11.2598L11.2109 12.0312C11.2109 12.4609 11.5527 12.8027 11.9727 12.8027C12.3926 12.8027 12.7441 12.4609 12.7441 12.0312C12.7441 11.6211 12.3828 11.2598 11.9727 11.2598Z" fill="#ffffff"/>
 </g>
</svg>
