<?xml version="1.0" encoding="UTF-8"?>
<!--Generator: Apple Native CoreSVG 232.5-->
<!DOCTYPE svg
PUBLIC "-//W3C//DTD SVG 1.1//EN"
       "http://www.w3.org/Graphics/SVG/1.1/DTD/svg11.dtd">
<svg version="1.1" xmlns="http://www.w3.org/2000/svg" xmlns:xlink="http://www.w3.org/1999/xlink" width="26.084" height="21.2793">
 <g>
  <rect height="21.2793" opacity="0" width="26.084" x="0" y="0"/>
  <path d="M0.800781 8.4082L22.168 8.4082L22.168 6.19141L0.800781 6.19141ZM3.06641 18.9844L19.8828 18.9844C21.9336 18.9844 22.9492 17.9785 22.9492 15.9668L22.9492 5.33203C22.9492 3.32031 21.9336 2.30469 19.8828 2.30469L3.06641 2.30469C1.03516 2.30469 0 3.32031 0 5.33203L0 15.9668C0 17.9785 1.03516 18.9844 3.06641 18.9844ZM3.0957 17.4121C2.11914 17.4121 1.57227 16.8945 1.57227 15.8789L1.57227 5.41992C1.57227 4.4043 2.11914 3.87695 3.0957 3.87695L19.8633 3.87695C20.8301 3.87695 21.377 4.4043 21.377 5.41992L21.377 15.8789C21.377 16.8945 20.8301 17.4121 19.8633 17.4121Z" fill="#000000" fill-opacity="0.5"/>
  <path d="M12.959 21.2793C13.3984 21.2793 13.7988 21.123 14.1016 20.8789C14.3652 21.0742 14.707 21.1914 15.0879 21.1914L18.7598 21.1914C19.2383 21.1914 19.668 21.0059 20 20.7227C20.5859 21.084 21.3281 21.2793 22.1875 21.2793C24.4727 21.2793 26.084 19.7559 26.084 17.8516C26.084 17.2266 25.9082 16.6406 25.498 16.1523C25.6934 15.7617 25.8105 15.3125 25.8105 14.8242C25.8105 13.0566 24.3164 11.6113 22.1777 11.6113C21.0547 11.6113 20.1074 12.0117 19.4629 12.6562C18.8281 12.0117 17.8906 11.6113 16.8066 11.6113C15.8789 11.6113 15.0391 11.9043 14.4141 12.3828C14.0918 11.9434 13.5449 11.6504 12.9102 11.6504C12.4414 11.6504 12.0215 11.7871 11.5625 12.0898L10.0977 13.0371C9.49219 13.4277 9.14062 14.0332 9.14062 14.7168C9.14062 15.6836 9.87305 16.582 10.791 16.582C10.8496 16.582 10.8984 16.5625 11.0059 16.5137L11.0059 19.3066C11.0059 20.4199 11.8652 21.2793 12.959 21.2793Z" fill="#ffffff"/>
  <path d="M22.1875 19.9512C23.6621 19.9512 24.7461 19.0625 24.7461 17.8516C24.7461 16.9238 24.1016 16.2109 23.2129 16.123L23.2129 16.4648C24.0039 16.2305 24.4727 15.6152 24.4727 14.8242C24.4727 13.7305 23.5059 12.9395 22.1777 12.9395C21.1719 12.9395 20.3418 13.3984 20 14.1309C19.9121 14.3164 19.8633 14.5215 19.8633 14.7168C19.8633 15.0586 20.0977 15.293 20.4395 15.293C20.7422 15.293 20.918 15.1562 21.0059 14.8633C21.1719 14.375 21.5625 14.1016 22.1484 14.1016C22.8125 14.1016 23.2129 14.4238 23.2129 14.9316C23.2129 15.459 22.7832 15.791 22.1094 15.791L21.6211 15.791C21.2891 15.791 21.0547 16.0352 21.0547 16.3574C21.0547 16.6797 21.2891 16.9141 21.6211 16.9141L22.1191 16.9141C22.9785 16.9141 23.4473 17.2461 23.4473 17.8516C23.4473 18.4082 22.9492 18.7793 22.1973 18.7793C21.5234 18.7793 21.0547 18.4961 20.8984 18.0176C20.8105 17.7246 20.6152 17.5879 20.3223 17.5879C19.9707 17.5879 19.7168 17.832 19.7168 18.1836C19.7168 18.3691 19.7656 18.5742 19.8633 18.75C20.2734 19.5117 21.1035 19.9512 22.1875 19.9512Z" fill="#000000" fill-opacity="0.5"/>
  <path d="M15.0879 19.8535L18.7598 19.8535C19.1016 19.8535 19.3555 19.6094 19.3555 19.2773C19.3555 18.9258 19.1016 18.6719 18.7598 18.6719L16.4355 18.6719L16.4355 18.623L17.7148 17.3535C18.7988 16.2891 19.1406 15.7031 19.1406 14.9609C19.1406 13.8086 18.1445 12.9395 16.8066 12.9395C15.7617 12.9395 14.873 13.5352 14.5801 14.3945C14.5312 14.541 14.4922 14.6875 14.4922 14.8535C14.4922 15.2051 14.7363 15.4395 15.0684 15.4395C15.3711 15.4395 15.5566 15.293 15.6445 14.9609C15.6641 14.8828 15.6836 14.8145 15.7129 14.7461C15.9082 14.3359 16.3086 14.1016 16.8066 14.1016C17.3926 14.1016 17.8711 14.5215 17.8711 15.0098C17.8711 15.4492 17.6758 15.752 16.8457 16.5723L14.7754 18.6328C14.5508 18.8477 14.4629 19.0332 14.4629 19.2578C14.4629 19.6094 14.7168 19.8535 15.0879 19.8535Z" fill="#000000" fill-opacity="0.5"/>
  <path d="M12.959 19.9414C13.3496 19.9414 13.6035 19.6875 13.6035 19.3066L13.6035 13.6523C13.6035 13.252 13.3301 12.9785 12.9102 12.9785C12.6953 12.9785 12.5391 13.0371 12.2949 13.2031L10.8203 14.1602C10.5859 14.3066 10.4785 14.4922 10.4785 14.7168C10.4785 15.0293 10.7227 15.2539 11.0449 15.2539C11.1719 15.2539 11.2891 15.2148 11.416 15.127L12.2852 14.5801L12.3438 14.5801L12.3438 19.3066C12.3438 19.6875 12.5977 19.9414 12.959 19.9414Z" fill="#000000" fill-opacity="0.5"/>
 </g>
</svg>
