<?xml version="1.0" encoding="UTF-8"?>
<!--Generator: Apple Native CoreSVG 232.5-->
<!DOCTYPE svg
PUBLIC "-//W3C//DTD SVG 1.1//EN"
       "http://www.w3.org/Graphics/SVG/1.1/DTD/svg11.dtd">
<svg version="1.1" xmlns="http://www.w3.org/2000/svg" xmlns:xlink="http://www.w3.org/1999/xlink" width="10.2644" height="21.773">
 <g>
  <rect height="21.773" opacity="0" width="10.2644" x="0" y="0"/>
  <path d="M0.000775296 0.920665L0.186322 4.3484C0.215619 4.9734 0.45976 5.33473 0.899213 5.65699L3.01835 7.20973C3.28203 7.39527 3.42851 7.53199 3.42851 7.99098L3.42851 20.7351C3.42851 21.2625 3.8582 21.6824 4.38554 21.6824C4.91288 21.6824 5.33281 21.2625 5.33281 20.7351L5.33281 13.8796C5.33281 13.7039 5.48906 13.5476 5.66484 13.5476C5.84062 13.5476 5.9871 13.7039 5.9871 13.8796L5.9871 20.7351C5.9871 21.2625 6.41679 21.6824 6.94413 21.6824C7.47148 21.6824 7.8914 21.2625 7.8914 20.7351L7.8914 9.41676C7.8914 9.24098 8.03788 9.10426 8.21367 9.10426C8.38945 9.10426 8.52617 9.24098 8.52617 9.41676L8.52617 13.1765C8.52617 13.6648 8.91679 14.0457 9.39531 14.0457C9.87382 14.0457 10.2644 13.6648 10.2644 13.1765L10.2644 8.97731C10.2644 6.8191 8.68242 5.38356 6.37773 5.38356L4.34648 5.38356C3.76054 5.38356 3.39921 5.26637 2.93046 4.93434L1.91484 4.21168L1.72929 0.832774C1.70976 0.354259 1.2996-0.0363661 0.821088 0.00269636C0.332807 0.0417589-0.018756 0.442149 0.000775296 0.920665ZM5.66484 4.28981C6.84648 4.28981 7.79374 3.34254 7.79374 2.1609C7.79374 0.979259 6.84648 0.0319932 5.66484 0.0319932C4.4832 0.0319932 3.53593 0.979259 3.53593 2.1609C3.53593 3.34254 4.4832 4.28981 5.66484 4.28981Z" fill="#000000" fill-opacity="0.85"/>
 </g>
</svg>
