<?xml version="1.0" encoding="UTF-8"?>
<!--Generator: Apple Native CoreSVG 232.5-->
<!DOCTYPE svg
PUBLIC "-//W3C//DTD SVG 1.1//EN"
       "http://www.w3.org/Graphics/SVG/1.1/DTD/svg11.dtd">
<svg version="1.1" xmlns="http://www.w3.org/2000/svg" xmlns:xlink="http://www.w3.org/1999/xlink" width="26.2012" height="28.291">
 <g>
  <rect height="28.291" opacity="0" width="26.2012" x="0" y="0"/>
  <path d="M25.2734 9.70703L15.7129 5.33203C14.7168 4.88281 13.9062 4.66797 13.0957 4.6875C12.2949 4.66797 11.4844 4.88281 10.4785 5.33203L0.927734 9.70703C0.302734 9.99023 0 10.4883 0 10.9863C0 11.4844 0.302734 11.9727 0.927734 12.2656L4.95117 14.1016L11.1328 11.2012C11.0742 11.1328 11.0547 11.0547 11.0547 10.9863C11.0547 10.3711 12.0898 9.90234 13.1348 9.90234C14.1895 9.90234 15.2051 10.3711 15.2051 10.9863C15.2051 11.6211 14.1895 12.0996 13.1348 12.0996C12.8125 12.0996 12.4902 12.0508 12.207 11.9727L6.30859 14.7363L10.4785 16.6504C11.4844 17.1094 12.2949 17.3047 13.0957 17.2949C13.9062 17.3047 14.7168 17.1094 15.7129 16.6504L25.2734 12.2656C25.8984 11.9727 26.2012 11.4844 26.2012 10.9863C26.2012 10.4883 25.8984 9.99023 25.2734 9.70703ZM6.26953 16.1816L6.26953 22.1191C7.91016 23.1152 10.2539 23.7207 13.0957 23.7207C18.8574 23.7207 22.5684 21.25 22.5684 18.3301L22.5684 14.9707L16.2695 17.8516C15.127 18.3789 14.0918 18.6426 13.0957 18.6328C12.1094 18.6426 11.0645 18.3789 9.92188 17.8516ZM3.63281 14.9707L3.63281 18.3301C3.63281 19.1797 4.12109 20.2344 5 21.1328L5 15.6055ZM5 24.3848L6.26953 24.3848L6.26953 22.1191C5.78125 21.8262 5.35156 21.4941 5 21.1328ZM4.22852 24.4531L4.22852 27.0215C4.22852 27.793 4.72656 28.291 5.49805 28.291L5.76172 28.291C6.5332 28.291 7.03125 27.793 7.03125 27.0215L7.03125 24.4531C7.03125 23.6816 6.5332 23.1836 5.76172 23.1836L5.49805 23.1836C4.72656 23.1836 4.22852 23.6816 4.22852 24.4531Z" fill="#000000" fill-opacity="0.5"/>
 </g>
</svg>
