<?xml version="1.0" encoding="UTF-8"?>
<!--Generator: Apple Native CoreSVG 232.5-->
<!DOCTYPE svg
PUBLIC "-//W3C//DTD SVG 1.1//EN"
       "http://www.w3.org/Graphics/SVG/1.1/DTD/svg11.dtd">
<svg version="1.1" xmlns="http://www.w3.org/2000/svg" xmlns:xlink="http://www.w3.org/1999/xlink" width="25.5908" height="20.1172">
 <g>
  <rect height="20.1172" opacity="0" width="25.5908" x="0" y="0"/>
  <path d="M19.8535 17.9492C23.0469 17.9492 25.5908 15.5957 25.5908 12.6465C25.5908 10.5176 24.3994 8.5791 22.417 7.75879C22.417 3.24707 19.1455 0 14.9023 0C12.373 0 10.3271 1.2207 9.00879 3.09082C6.4209 2.49512 3.83789 4.37012 3.67188 7.14844C1.39648 7.61719 0 9.69238 0 12.2217C0 15.3613 2.73926 17.9492 6.2793 17.9492Z" fill="#000000" fill-opacity="0.85"/>
  <path d="M8.66699 13.6475C7.55371 12.5244 7.55371 10.9277 8.66699 9.81445L10.1318 8.34961C9.89746 8.97949 9.98047 9.58496 10.1758 10.0293L9.5752 10.6396C8.95996 11.2646 8.94043 12.1094 9.5752 12.7441C10.2002 13.3594 11.0547 13.374 11.6797 12.749L13.5986 10.8301C14.2236 10.2002 14.2236 9.33105 13.5938 8.72559C13.3203 8.46191 13.0371 8.33008 12.7051 8.34961C12.8223 8.20312 12.9395 8.07617 13.0322 7.97363L13.7158 7.2998C13.96 7.3877 14.2383 7.56348 14.502 7.81738C15.6543 8.91113 15.625 10.542 14.5068 11.6553L12.5098 13.6475C11.3867 14.7656 9.79004 14.7656 8.66699 13.6475ZM17.2217 5.11719C18.3252 6.22559 18.3301 7.82227 17.2119 8.94043L15.752 10.4102C15.9863 9.78516 15.9033 9.16992 15.7031 8.7207L16.3086 8.11523C16.9385 7.49512 16.9434 6.63574 16.3037 6.01562C15.6836 5.40527 14.834 5.38086 14.2041 6.01074L12.29 7.9248C11.6602 8.55469 11.6553 9.42383 12.29 10.0293C12.5537 10.2832 12.8369 10.4199 13.1445 10.4297C13.0469 10.5566 12.9883 10.6348 12.8564 10.7861L12.1729 11.4551C11.9385 11.3721 11.6553 11.1914 11.3867 10.9375C10.2393 9.84863 10.2637 8.21289 11.3818 7.09961L13.374 5.10254C14.502 3.98438 16.0938 3.98438 17.2217 5.11719Z" fill="#ffffff"/>
 </g>
</svg>
