<?xml version="1.0" encoding="UTF-8"?>
<!--Generator: Apple Native CoreSVG 232.5-->
<!DOCTYPE svg
PUBLIC "-//W3C//DTD SVG 1.1//EN"
       "http://www.w3.org/Graphics/SVG/1.1/DTD/svg11.dtd">
<svg version="1.1" xmlns="http://www.w3.org/2000/svg" xmlns:xlink="http://www.w3.org/1999/xlink" width="20.1758" height="25.6543">
 <g>
  <rect height="25.6543" opacity="0" width="20.1758" x="0" y="0"/>
  <path d="M3.06641 21.6406L17.1094 21.6406C19.1504 21.6406 20.1758 20.625 20.1758 18.623L20.1758 5.80078C20.1758 3.7793 19.1504 2.77344 17.1094 2.77344L3.06641 2.77344C1.01562 2.77344 0 3.7793 0 5.80078L0 18.623C0 20.6348 1.01562 21.6406 3.06641 21.6406ZM8.98438 15.6055C8.51562 15.6055 8.19336 15.166 7.82227 14.6484C7.37305 14.0234 7.03125 13.0566 7.03125 12.1387C7.03125 10.6543 7.97852 9.88281 8.92578 9.88281C9.42383 9.88281 9.83398 10.2148 10.1465 10.2148C10.4492 10.2148 10.9082 9.86328 11.4746 9.86328C11.6992 9.86328 12.4707 9.88281 12.9883 10.6152C12.9395 10.6445 12.168 11.0938 12.168 12.0703C12.168 13.1836 13.1543 13.5742 13.1836 13.5938C13.1641 13.623 13.0371 14.1406 12.666 14.668C12.3438 15.127 12.002 15.6055 11.4746 15.6055C10.9766 15.6055 10.8301 15.3027 10.2344 15.3027C9.67773 15.3027 9.45312 15.6055 8.98438 15.6055ZM10.1953 9.80469C10.1465 9.80469 10.1172 9.78516 10.0977 9.76562C10.0879 9.75586 10.0879 9.69727 10.0879 9.63867C10.0879 9.24805 10.2539 8.84766 10.4785 8.60352C10.7715 8.29102 11.2207 8.05664 11.6016 8.03711C11.6211 8.07617 11.6211 8.125 11.6211 8.18359C11.6211 8.58398 11.4551 8.96484 11.2207 9.24805C10.9766 9.56055 10.5273 9.80469 10.1953 9.80469ZM2.62695 24.541L6.19141 24.541C6.60156 24.541 6.92383 24.209 6.92383 23.7988C6.92383 23.3887 6.60156 23.0566 6.19141 23.0566L2.62695 23.0566C2.22656 23.0566 1.89453 23.3887 1.89453 23.7988C1.89453 24.209 2.22656 24.541 2.62695 24.541ZM3.67188 23.75L5.14648 23.75L5.14648 20.8105L3.67188 20.8105ZM13.9844 24.541L17.5488 24.541C17.959 24.541 18.2812 24.209 18.2812 23.7988C18.2812 23.3887 17.959 23.0566 17.5488 23.0566L13.9844 23.0566C13.584 23.0566 13.252 23.3887 13.252 23.7988C13.252 24.209 13.584 24.541 13.9844 24.541ZM15.0293 23.75L16.5039 23.75L16.5039 20.8105L15.0293 20.8105ZM3.67188 3.53516L5.14648 3.53516L5.14648 0.732422C5.14648 0.332031 4.82422 0 4.41406 0C4.00391 0 3.67188 0.332031 3.67188 0.732422ZM15.0293 3.53516L16.5039 3.53516L16.5039 0.732422C16.5039 0.332031 16.1816 0 15.7715 0C15.3516 0 15.0293 0.332031 15.0293 0.732422Z" fill="#000000" fill-opacity="0.5"/>
 </g>
</svg>
