<?xml version="1.0" encoding="UTF-8"?>
<!--Generator: Apple Native CoreSVG 175.5-->
<!DOCTYPE svg
PUBLIC "-//W3C//DTD SVG 1.1//EN"
       "http://www.w3.org/Graphics/SVG/1.1/DTD/svg11.dtd">
<svg version="1.1" xmlns="http://www.w3.org/2000/svg" xmlns:xlink="http://www.w3.org/1999/xlink" width="23.0273" height="17.998">
 <g>
  <rect height="17.998" opacity="0" width="23.0273" x="0" y="0"/>
  <path d="M0 14.9707C0 16.9922 1.02539 17.998 3.06641 17.998L19.9609 17.998C22.0117 17.998 23.0273 16.9824 23.0273 14.9707L23.0273 3.04688C23.0273 1.03516 22.0117 0.0195312 19.9609 0.0195312L3.06641 0.0195312C1.02539 0.0195312 0 1.02539 0 3.04688ZM1.57227 14.8926L1.57227 4.94141L21.4551 4.94141L21.4551 14.8926C21.4551 15.9082 20.9082 16.4258 19.9414 16.4258L3.08594 16.4258C2.10938 16.4258 1.57227 15.9082 1.57227 14.8926Z" fill="#000000" fill-opacity="0.25"/>
  <path d="M3.0957 3.34961C2.61719 3.34961 2.22656 2.93945 2.22656 2.48047C2.22656 2.02148 2.61719 1.61133 3.0957 1.61133C3.57422 1.61133 3.97461 2.02148 3.97461 2.48047C3.97461 2.93945 3.57422 3.34961 3.0957 3.34961Z" fill="#ff3b30"/>
  <path d="M5.89844 3.34961C5.41992 3.34961 5.0293 2.93945 5.0293 2.48047C5.0293 2.02148 5.41992 1.61133 5.89844 1.61133C6.37695 1.61133 6.77734 2.02148 6.77734 2.48047C6.77734 2.93945 6.37695 3.34961 5.89844 3.34961Z" fill="#ffcc00"/>
  <path d="M8.70117 3.34961C8.22266 3.34961 7.83203 2.93945 7.83203 2.48047C7.83203 2.02148 8.22266 1.61133 8.70117 1.61133C9.17969 1.61133 9.57031 2.02148 9.57031 2.48047C9.57031 2.93945 9.17969 3.34961 8.70117 3.34961Z" fill="#28cd41"/>
  <path d="M1.57227 14.8926L1.57227 4.94141L21.4551 4.94141L21.4551 14.8926C21.4551 15.9082 20.9082 16.4258 19.9414 16.4258L3.08594 16.4258C2.10938 16.4258 1.57227 15.9082 1.57227 14.8926Z" fill="#000000" fill-opacity="0.125"/>
 </g>
</svg>
