<?xml version="1.0" encoding="UTF-8"?>
<!--Generator: Apple Native CoreSVG 232.5-->
<!DOCTYPE svg
PUBLIC "-//W3C//DTD SVG 1.1//EN"
       "http://www.w3.org/Graphics/SVG/1.1/DTD/svg11.dtd">
<svg version="1.1" xmlns="http://www.w3.org/2000/svg" xmlns:xlink="http://www.w3.org/1999/xlink" width="24.4141" height="19.541">
 <g>
  <rect height="19.541" opacity="0" width="24.4141" x="0" y="0"/>
  <path d="M2.50977 16.2207L21.9043 16.2207C23.4668 16.2207 24.4141 15.2637 24.4141 13.7109L24.4141 2.50977C24.4141 0.957031 23.4668 0 21.9043 0L2.50977 0C0.957031 0 0 0.957031 0 2.50977L0 13.7109C0 15.2637 0.957031 16.2207 2.50977 16.2207ZM2.53906 14.6484C1.93359 14.6484 1.57227 14.2871 1.57227 13.6914L1.57227 2.5293C1.57227 1.93359 1.93359 1.57227 2.53906 1.57227L21.875 1.57227C22.4805 1.57227 22.8418 1.93359 22.8418 2.5293L22.8418 13.6914C22.8418 14.2871 22.4805 14.6484 21.875 14.6484ZM7.29492 19.5312L17.1191 19.5312C17.5488 19.5312 17.9102 19.1797 17.9102 18.7402C17.9102 18.3008 17.5488 17.9492 17.1191 17.9492L7.29492 17.9492C6.86523 17.9492 6.50391 18.3008 6.50391 18.7402C6.50391 19.1797 6.86523 19.5312 7.29492 19.5312Z" fill="#000000" fill-opacity="0.85"/>
  <path d="M15.1562 6.33789C15.625 6.21094 15.7617 6.11328 15.7617 5.54688L15.7617 3.63281C15.7617 3.26172 15.6348 3.0957 15.1172 3.22266L12.2559 3.93555C11.7773 4.05273 11.6699 4.15039 11.6699 4.72656L11.6699 9.13086C11.6699 9.56055 11.6309 9.63867 11.1426 9.77539L10.2441 10.0098C9.35547 10.2441 8.61328 10.7715 8.61328 11.7285C8.61328 12.5586 9.23828 13.1641 10.2148 13.1641C11.6113 13.1641 12.5586 12.1582 12.5586 10.7422L12.5586 7.39258C12.5586 7.03125 12.6465 6.93359 12.8613 6.88477Z" fill="#ff3b30"/>
 </g>
</svg>
