<?xml version="1.0" encoding="UTF-8"?>
<!--Generator: Apple Native CoreSVG 232.5-->
<!DOCTYPE svg
PUBLIC "-//W3C//DTD SVG 1.1//EN"
       "http://www.w3.org/Graphics/SVG/1.1/DTD/svg11.dtd">
<svg version="1.1" xmlns="http://www.w3.org/2000/svg" xmlns:xlink="http://www.w3.org/1999/xlink" width="21.8164" height="20.9473">
 <g>
  <rect height="20.9473" opacity="0" width="21.8164" x="0" y="0"/>
  <path d="M0 9.52148L0 18.2422C0 18.9551 0.517578 19.4141 1.20117 19.4141C1.88477 19.4043 2.40234 18.9551 2.40234 18.2422L2.40234 7.68555L1.92383 7.68555C0.732422 7.68555 0 8.35938 0 9.52148ZM3.30078 20.9375L18.75 20.9375C20.8008 20.9375 21.8164 19.9316 21.8164 17.9199L21.8164 3.02734C21.8164 1.01562 20.8008 0 18.75 0L7.37305 0C5.33203 0 4.30664 1.01562 4.30664 3.02734L4.30664 18.8867C4.30664 19.9316 4.0625 20.5176 3.30078 20.9375ZM8.22266 5.82031C7.87109 5.82031 7.60742 5.54688 7.60742 5.20508C7.60742 4.87305 7.87109 4.61914 8.22266 4.61914L17.9199 4.61914C18.2617 4.61914 18.5254 4.87305 18.5254 5.20508C18.5254 5.54688 18.2617 5.82031 17.9199 5.82031ZM8.22266 9.25781C7.87109 9.25781 7.60742 8.99414 7.60742 8.66211C7.60742 8.32031 7.87109 8.05664 8.22266 8.05664L17.9199 8.05664C18.2617 8.05664 18.5254 8.32031 18.5254 8.66211C18.5254 8.99414 18.2617 9.25781 17.9199 9.25781ZM14.2773 12.7051C13.9258 12.7051 13.6719 12.4512 13.6719 12.1191C13.6719 11.7676 13.9258 11.5039 14.2773 11.5039L17.9199 11.5039C18.2617 11.5039 18.5156 11.7676 18.5156 12.1191C18.5156 12.4512 18.2617 12.7051 17.9199 12.7051ZM14.2773 16.2207C13.9258 16.2207 13.6719 15.9668 13.6719 15.6348C13.6719 15.293 13.9258 15.0195 14.2773 15.0195L17.9199 15.0195C18.2617 15.0195 18.5156 15.293 18.5156 15.6348C18.5156 15.9668 18.2617 16.2207 17.9199 16.2207ZM8.75 16.2695C8.02734 16.2695 7.59766 15.8398 7.59766 15.127L7.59766 12.6562C7.59766 11.9336 8.02734 11.5039 8.75 11.5039L11.1914 11.5039C11.9043 11.5039 12.334 11.9336 12.334 12.6562L12.334 15.127C12.334 15.8398 11.9043 16.2695 11.1914 16.2695Z" fill="#000000" fill-opacity="0.85"/>
 </g>
</svg>
