<?xml version="1.0" encoding="UTF-8"?>
<!--Generator: Apple Native CoreSVG 232.5-->
<!DOCTYPE svg
PUBLIC "-//W3C//DTD SVG 1.1//EN"
       "http://www.w3.org/Graphics/SVG/1.1/DTD/svg11.dtd">
<svg version="1.1" xmlns="http://www.w3.org/2000/svg" xmlns:xlink="http://www.w3.org/1999/xlink" width="22.5" height="22.373">
 <g>
  <rect height="22.373" opacity="0" width="22.5" x="0" y="0"/>
  <path d="M6.53809 22.373C6.98242 22.373 7.34375 22.1777 7.88086 21.6943L11.5381 18.4424L17.7148 18.4424C20.7031 18.4424 22.5 16.6211 22.5 13.6572L22.5 5.91797C22.5 2.9541 20.7031 1.12793 17.7148 1.12793L4.78516 1.12793C1.79688 1.12793 0 2.94922 0 5.91797L0 13.6572C0 16.626 1.90918 18.4424 4.61426 18.4424L5.50293 18.4424L5.50293 21.2158C5.50293 21.9238 5.89355 22.373 6.53809 22.373Z" fill="#000000" fill-opacity="0.2125"/>
  <path d="M6.72852 14.9512C6.21582 14.9512 5.9668 14.5898 5.9668 14.1406C5.9668 13.0762 7.48535 10.3662 10.918 10.3662C14.3457 10.3662 15.8643 13.0762 15.8643 14.1406C15.8643 14.5898 15.6104 14.9512 15.0977 14.9512ZM10.918 9.62891C9.53613 9.62402 8.41309 8.46191 8.41309 6.89941C8.41309 5.44434 9.53613 4.2334 10.918 4.2334C12.29 4.2334 13.4131 5.44434 13.4131 6.89941C13.4131 8.46191 12.29 9.63379 10.918 9.62891Z" fill="#000000" fill-opacity="0.85"/>
 </g>
</svg>
