<?xml version="1.0" encoding="UTF-8"?>
<!--Generator: Apple Native CoreSVG 232.5-->
<!DOCTYPE svg
PUBLIC "-//W3C//DTD SVG 1.1//EN"
       "http://www.w3.org/Graphics/SVG/1.1/DTD/svg11.dtd">
<svg version="1.1" xmlns="http://www.w3.org/2000/svg" xmlns:xlink="http://www.w3.org/1999/xlink" width="24.1943" height="26.2207">
 <g>
  <rect height="26.2207" opacity="0" width="24.1943" x="0" y="0"/>
  <path d="M7.40234 11.6455L16.792 11.6455C17.7539 11.6455 18.3301 11.0742 18.3301 10.127L18.3301 3.11523C18.3301 2.1582 17.7539 1.5918 16.792 1.5918L7.40234 1.5918C6.44043 1.5918 5.86426 2.1582 5.86426 3.11523L5.86426 10.127C5.86426 11.0742 6.44043 11.6455 7.40234 11.6455Z" fill="#000000" fill-opacity="0.85"/>
  <path d="M5.9668 19.1016L18.2324 19.1016C20.3027 19.1016 21.709 17.7051 21.709 15.6445L21.709 6.49902C21.709 4.43359 20.3027 3.04199 18.2324 3.04199L5.9668 3.04199C3.89648 3.04199 2.48535 4.43359 2.48535 6.49902L2.48535 15.6445C2.48535 17.7051 3.89648 19.1016 5.9668 19.1016Z" fill="#ffffff"/>
  <path d="M5.91309 17.6709L18.2861 17.6709C19.5361 17.6709 20.2783 16.9385 20.2783 15.6982L20.2783 6.44531C20.2783 5.20508 19.5361 4.47266 18.2861 4.47266L5.91309 4.47266C4.66309 4.47266 3.91602 5.20508 3.91602 6.44531L3.91602 15.6982C3.91602 16.9385 4.66309 17.6709 5.91309 17.6709Z" fill="#000000" fill-opacity="0.85"/>
  <path d="M5.06836 26.2207L19.126 26.2207C22.251 26.2207 24.1943 24.292 24.1943 21.1768L24.1943 11.1084C24.1943 7.99316 22.251 6.05957 19.126 6.05957L5.06836 6.05957C1.94336 6.05957 0 7.99316 0 11.1084L0 21.1768C0 24.292 1.94336 26.2207 5.06836 26.2207Z" fill="#ffffff"/>
  <path d="M6.58203 22.9883L17.8467 22.9883C17.2363 20.8008 14.9609 19.2822 12.2119 19.2822C9.46289 19.2822 7.1875 20.8008 6.58203 22.9883ZM12.2119 18.0078C13.9062 18.0078 15.2051 16.582 15.2051 14.7461C15.2051 13.0029 13.8916 11.5381 12.2119 11.5381C10.5371 11.5381 9.22363 13.0029 9.22363 14.7461C9.22363 16.582 10.5225 18.0078 12.2119 18.0078ZM5.06836 24.6045L19.126 24.6045C21.3525 24.6045 22.5732 23.3887 22.5732 21.1768L22.5732 11.1084C22.5732 8.8916 21.3525 7.68066 19.126 7.68066L5.06836 7.68066C2.83691 7.68066 1.62109 8.8916 1.62109 11.1084L1.62109 21.1768C1.62109 23.3887 2.83691 24.6045 5.06836 24.6045ZM5.34668 22.085C4.56055 22.085 4.14062 21.6992 4.14062 20.8643L4.14062 11.416C4.14062 10.5859 4.56055 10.2002 5.34668 10.2002L18.8525 10.2002C19.6289 10.2002 20.0537 10.5859 20.0537 11.416L20.0537 20.8643C20.0537 21.6992 19.6289 22.085 18.8525 22.085Z" fill="#000000" fill-opacity="0.85"/>
 </g>
</svg>
