<?xml version="1.0" encoding="UTF-8"?>
<!--Generator: Apple Native CoreSVG 232.5-->
<!DOCTYPE svg
PUBLIC "-//W3C//DTD SVG 1.1//EN"
       "http://www.w3.org/Graphics/SVG/1.1/DTD/svg11.dtd">
<svg version="1.1" xmlns="http://www.w3.org/2000/svg" xmlns:xlink="http://www.w3.org/1999/xlink" width="23.0273" height="17.9785">
 <g>
  <rect height="17.9785" opacity="0" width="23.0273" x="0" y="0"/>
  <path d="M3.06641 17.9785L19.9609 17.9785C22.0117 17.9785 23.0273 16.9727 23.0273 14.9609L23.0273 3.02734C23.0273 1.01562 22.0117 0 19.9609 0L3.06641 0C1.02539 0 0 1.01562 0 3.02734L0 14.9609C0 16.9727 1.02539 17.9785 3.06641 17.9785Z" fill="#000000"/>
  <path d="M13.8184 5.77148C13.4668 5.77148 13.2031 5.50781 13.2031 5.16602C13.2031 4.83398 13.4668 4.57031 13.8184 4.57031L19.1504 4.57031C19.4922 4.57031 19.7559 4.83398 19.7559 5.16602C19.7559 5.50781 19.4922 5.77148 19.1504 5.77148ZM13.8184 9.59961C13.4668 9.59961 13.2031 9.32617 13.2031 8.98438C13.2031 8.65234 13.4668 8.39844 13.8184 8.39844L19.1504 8.39844C19.4922 8.39844 19.7559 8.65234 19.7559 8.98438C19.7559 9.32617 19.4922 9.59961 19.1504 9.59961ZM13.8184 13.418C13.4668 13.418 13.2031 13.1641 13.2031 12.832C13.2031 12.4902 13.4668 12.2168 13.8184 12.2168L19.1504 12.2168C19.4922 12.2168 19.7559 12.4902 19.7559 12.832C19.7559 13.1641 19.4922 13.418 19.1504 13.418ZM3.64258 13.4863C3.32031 13.4863 3.16406 13.2715 3.16406 12.9785C3.16406 12.0605 4.53125 9.69727 7.45117 9.69727C10.3711 9.69727 11.748 12.0605 11.748 12.9785C11.748 13.2715 11.5918 13.4863 11.2695 13.4863ZM7.45117 9.01367C6.26953 9.01367 5.3125 8.01758 5.3125 6.67969C5.3125 5.42969 6.26953 4.39453 7.45117 4.39453C8.64258 4.39453 9.58984 5.42969 9.58984 6.67969C9.58984 8.01758 8.64258 9.02344 7.45117 9.01367Z" fill="#55bef0"/>
 </g>
</svg>
