<?xml version="1.0" encoding="UTF-8"?>
<!--Generator: Apple Native CoreSVG 232.5-->
<!DOCTYPE svg
PUBLIC "-//W3C//DTD SVG 1.1//EN"
       "http://www.w3.org/Graphics/SVG/1.1/DTD/svg11.dtd">
<svg version="1.1" xmlns="http://www.w3.org/2000/svg" xmlns:xlink="http://www.w3.org/1999/xlink" width="17.8125" height="21.3965">
 <g>
  <rect height="21.3965" opacity="0" width="17.8125" x="0" y="0"/>
  <path d="M3.06641 14.6289L14.7461 14.6289C16.7871 14.6289 17.8125 13.6133 17.8125 11.6016L17.8125 3.03711C17.8125 1.02539 16.7871 0.00976562 14.7461 0.00976562L3.06641 0.00976562C1.01562 0.00976562 0 1.02539 0 3.03711L0 11.6016C0 13.6133 1.01562 14.6289 3.06641 14.6289ZM3.08594 13.0566C2.12891 13.0566 1.57227 12.5391 1.57227 11.5234L1.57227 3.11523C1.57227 2.10938 2.12891 1.58203 3.08594 1.58203L14.7168 1.58203C15.6836 1.58203 16.2402 2.10938 16.2402 3.11523L16.2402 11.5234C16.2402 12.5391 15.6836 13.0566 14.7168 13.0566ZM8.11523 19.1211L9.6875 19.1211L9.6875 13.623L8.11523 13.623ZM0.78125 19.9023L17.0215 19.9023C17.4512 19.9023 17.8125 19.541 17.8125 19.1113C17.8125 18.6816 17.4512 18.3301 17.0215 18.3301L0.78125 18.3301C0.351562 18.3301 0 18.6816 0 19.1113C0 19.541 0.351562 19.9023 0.78125 19.9023ZM8.90625 21.3965C10.1465 21.3965 11.1719 20.3711 11.1719 19.1309C11.1719 17.8809 10.1465 16.8555 8.90625 16.8555C7.65625 16.8555 6.63086 17.8809 6.63086 19.1309C6.63086 20.3711 7.65625 21.3965 8.90625 21.3965Z" fill="#000000" fill-opacity="0.85"/>
 </g>
</svg>
