<?xml version="1.0" encoding="UTF-8"?>
<!--Generator: Apple Native CoreSVG 232.5-->
<!DOCTYPE svg
PUBLIC "-//W3C//DTD SVG 1.1//EN"
       "http://www.w3.org/Graphics/SVG/1.1/DTD/svg11.dtd">
<svg version="1.1" xmlns="http://www.w3.org/2000/svg" xmlns:xlink="http://www.w3.org/1999/xlink" width="17.9785" height="17.998">
 <g>
  <rect height="17.998" opacity="0" width="17.9785" x="0" y="0"/>
  <path d="M3.06641 17.998L14.9121 17.998C16.9629 17.998 17.9785 16.9824 17.9785 14.9707L17.9785 3.04688C17.9785 1.03516 16.9629 0.0195312 14.9121 0.0195312L3.06641 0.0195312C1.02539 0.0195312 0 1.02539 0 3.04688L0 14.9707C0 16.9922 1.02539 17.998 3.06641 17.998Z" fill="#000000"/>
  <path d="M8.89648 13.7207C7.06055 13.7207 5.83984 12.832 5.47852 11.875C5.40039 11.6895 5.36133 11.5234 5.36133 11.3672C5.36133 10.9277 5.6543 10.6445 6.09375 10.6445C6.45508 10.6445 6.66992 10.8203 6.85547 11.1914C7.20703 11.9922 7.93945 12.4023 8.99414 12.4023C10.0977 12.4023 10.9473 11.9141 10.9473 11.0254C10.9473 10.3223 10.5371 10.0195 9.3457 9.6875L7.88086 9.26758C6.31836 8.83789 5.49805 8.11523 5.49805 6.8457C5.49805 5.23438 6.93359 4.0918 9.00391 4.0918C10.7031 4.0918 11.9141 4.87305 12.2949 5.94727C12.3633 6.12305 12.3926 6.29883 12.3926 6.42578C12.3926 6.89453 12.0898 7.12891 11.6797 7.12891C11.2891 7.12891 11.0742 6.94336 10.9375 6.61133C10.5859 5.77148 9.95117 5.37109 8.93555 5.37109C7.87109 5.37109 7.17773 5.9082 7.17773 6.74805C7.17773 7.36328 7.57812 7.73438 8.54492 7.98828L9.89258 8.34961C11.6602 8.81836 12.6367 9.56055 12.6367 10.8887C12.6367 12.627 11.1523 13.7207 8.89648 13.7207Z" fill="#ffcc00"/>
 </g>
</svg>
