<?xml version="1.0" encoding="UTF-8"?>
<!--Generator: Apple Native CoreSVG 232.5-->
<!DOCTYPE svg
PUBLIC "-//W3C//DTD SVG 1.1//EN"
       "http://www.w3.org/Graphics/SVG/1.1/DTD/svg11.dtd">
<svg version="1.1" xmlns="http://www.w3.org/2000/svg" xmlns:xlink="http://www.w3.org/1999/xlink" width="23.6035" height="24.7363">
 <g>
  <rect height="24.7363" opacity="0" width="23.6035" x="0" y="0"/>
  <path d="M7.01172 11.2305L16.5918 11.2305C17.4609 11.2305 17.9688 10.7422 17.9688 9.88281L17.9688 2.90039C17.9688 2.04102 17.4609 1.54297 16.5918 1.54297L7.01172 1.54297C6.14258 1.54297 5.63477 2.04102 5.63477 2.90039L5.63477 9.88281C5.63477 10.7422 6.14258 11.2305 7.01172 11.2305Z" fill="#000000" fill-opacity="0.85"/>
  <path d="M5.52734 18.3105L18.0859 18.3105C20.0293 18.3105 21.3086 17.041 21.3086 15.1172L21.3086 5.98633C21.3086 4.05273 20.0293 2.79297 18.0859 2.79297L5.52734 2.79297C3.58398 2.79297 2.29492 4.05273 2.29492 5.98633L2.29492 15.1172C2.29492 17.041 3.58398 18.3105 5.52734 18.3105Z" fill="#ffffff"/>
  <path d="M5.41992 16.9824L18.1934 16.9824C19.3359 16.9824 19.9805 16.3477 19.9805 15.2246L19.9805 5.87891C19.9805 4.75586 19.3359 4.12109 18.1934 4.12109L5.41992 4.12109C4.27734 4.12109 3.62305 4.75586 3.62305 5.87891L3.62305 15.2246C3.62305 16.3477 4.27734 16.9824 5.41992 16.9824Z" fill="#000000" fill-opacity="0.85"/>
  <path d="M4.63867 24.7363L18.9648 24.7363C21.875 24.7363 23.6035 23.0273 23.6035 20.1367L23.6035 10.1074C23.6035 7.2168 21.875 5.50781 18.9648 5.50781L4.63867 5.50781C1.72852 5.50781 0 7.2168 0 10.1074L0 20.1367C0 23.0273 1.72852 24.7363 4.63867 24.7363Z" fill="#ffffff"/>
  <path d="M4.63867 23.1641L18.9648 23.1641C21.0059 23.1641 22.0312 22.1484 22.0312 20.1367L22.0312 10.1074C22.0312 8.0957 21.0059 7.08008 18.9648 7.08008L4.63867 7.08008C2.59766 7.08008 1.57227 8.0957 1.57227 10.1074L1.57227 20.1367C1.57227 22.1484 2.59766 23.1641 4.63867 23.1641ZM4.66797 21.5918C3.69141 21.5918 3.14453 21.0645 3.14453 20.0488L3.14453 10.1953C3.14453 9.17969 3.69141 8.65234 4.66797 8.65234L18.9453 8.65234C19.9023 8.65234 20.459 9.17969 20.459 10.1953L20.459 20.0488C20.459 21.0645 19.9023 21.5918 18.9453 21.5918Z" fill="#000000" fill-opacity="0.85"/>
  <path d="M12.2754 19.0625C12.4609 19.0625 12.5879 18.9355 12.627 18.75C13.1641 15.8789 13.4277 15.3418 16.416 14.9414C16.6113 14.9121 16.748 14.7754 16.748 14.5898C16.748 14.4043 16.6113 14.2676 16.416 14.2285C13.4375 13.8281 13.0566 13.2617 12.627 10.4395C12.5977 10.2441 12.4609 10.1172 12.2754 10.1172C12.0996 10.1172 11.9531 10.2344 11.9141 10.4297C11.377 13.3105 11.1133 13.8281 8.125 14.2285C7.92969 14.2676 7.80273 14.4043 7.80273 14.5898C7.80273 14.7754 7.92969 14.9121 8.125 14.9414C11.123 15.2441 11.4941 15.8789 11.9141 18.7402C11.9434 18.9355 12.0801 19.0625 12.2754 19.0625ZM8.4375 20.6543C8.56445 20.6543 8.67188 20.5664 8.70117 20.4395C8.97461 19.0137 8.87695 18.9453 10.4297 18.7109C10.5664 18.6914 10.6543 18.5742 10.6543 18.4375C10.6543 18.3105 10.5664 18.1934 10.4297 18.1738C8.87695 17.9199 8.97461 17.8516 8.70117 16.4746C8.67188 16.3281 8.57422 16.2207 8.4375 16.2207C8.30078 16.2207 8.20312 16.3184 8.16406 16.4746C7.88086 17.8516 7.99805 17.9199 6.44531 18.1738C6.29883 18.1934 6.2207 18.3105 6.2207 18.4375C6.2207 18.5938 6.29883 18.6914 6.46484 18.7109C7.99805 18.9453 7.88086 19.0137 8.16406 20.4102C8.20312 20.5566 8.29102 20.6543 8.4375 20.6543Z" fill="#000000" fill-opacity="0.85"/>
 </g>
</svg>
