<?xml version="1.0" encoding="UTF-8"?>
<!--Generator: Apple Native CoreSVG 232.5-->
<!DOCTYPE svg
PUBLIC "-//W3C//DTD SVG 1.1//EN"
       "http://www.w3.org/Graphics/SVG/1.1/DTD/svg11.dtd">
<svg version="1.1" xmlns="http://www.w3.org/2000/svg" xmlns:xlink="http://www.w3.org/1999/xlink" width="20" height="20.498">
 <g>
  <rect height="20.498" opacity="0" width="20" x="0" y="0"/>
  <path d="M17.9883 15.7129L12.8027 15.7129L12.8027 16.7578C12.8027 18.291 13.8574 19.3555 15.4004 19.3555C16.9336 19.3555 17.9883 18.291 17.9883 16.7578Z" fill="#0a84ff"/>
  <path d="M11.6113 1.64062L19.1797 1.64062C19.6289 1.64062 20 1.25977 20 0.810547C20 0.361328 19.6289 0 19.1797 0L11.6113 0C11.123 0 10.7812 0.361328 10.7812 0.810547C10.7812 1.25977 11.123 1.64062 11.6113 1.64062ZM15.4004 20.459C17.627 20.459 19.1113 18.9844 19.1113 16.7578L19.1113 0.820312L17.5488 0.820312L17.5488 16.7578C17.5488 18.0469 16.6895 18.9062 15.4004 18.9062C14.1016 18.9062 13.2422 18.0469 13.2422 16.7578L13.2422 0.820312L11.6699 0.820312L11.6699 16.7578C11.6699 18.9844 13.1641 20.459 15.4004 20.459ZM12.832 7.39258L15.3809 7.39258C15.7031 7.39258 15.9473 7.13867 15.9473 6.80664C15.9473 6.50391 15.6836 6.25 15.3711 6.25L12.832 6.25ZM12.832 10.5566L15.3809 10.5566C15.7031 10.5566 15.9473 10.3125 15.9473 9.98047C15.9473 9.67773 15.6934 9.41406 15.3809 9.41406L12.832 9.41406ZM12.832 13.7305L15.3711 13.7305C15.7129 13.7305 15.9473 13.4863 15.9375 13.1543C15.9375 12.8516 15.6836 12.5879 15.3711 12.5879L12.832 12.5879Z" fill="#98989d"/>
  <path d="M7.20703 4.21875L2.01172 4.21875L2.01172 16.7578C2.01172 18.291 3.07617 19.3555 4.61914 19.3555C6.14258 19.3555 7.20703 18.291 7.20703 16.7578Z" fill="#0a84ff"/>
  <path d="M0.820312 1.64062L8.38867 1.64062C8.83789 1.64062 9.21875 1.25977 9.21875 0.810547C9.21875 0.361328 8.83789 0 8.38867 0L0.820312 0C0.332031 0 0 0.361328 0 0.810547C0 1.25977 0.332031 1.64062 0.820312 1.64062ZM4.61914 20.459C6.8457 20.459 8.32031 18.9844 8.32031 16.7578L8.32031 0.820312L6.75781 0.820312L6.75781 16.7578C6.75781 18.0469 5.89844 18.9062 4.61914 18.9062C3.32031 18.9062 2.46094 18.0469 2.46094 16.7578L2.46094 0.820312L0.888672 0.820312L0.888672 16.7578C0.888672 18.9844 2.37305 20.459 4.61914 20.459Z" fill="#98989d"/>
  <path d="M2.46094 7.39258L2.46094 6.25L4.58008 6.25C4.89258 6.25 5.16602 6.50391 5.16602 6.80664C5.16602 7.13867 4.91211 7.39258 4.58984 7.39258ZM2.46094 10.5566L2.46094 9.41406L4.58984 9.41406C4.90234 9.41406 5.16602 9.67773 5.16602 9.98047C5.16602 10.3125 4.91211 10.5566 4.58984 10.5566ZM2.46094 13.7305L2.46094 12.5879L4.58008 12.5879C4.89258 12.5879 5.15625 12.8516 5.15625 13.1543C5.16602 13.4863 4.92188 13.7305 4.58008 13.7305Z" fill="#ffffff"/>
 </g>
</svg>
