<?xml version="1.0" encoding="UTF-8"?>
<!--Generator: Apple Native CoreSVG 232.5-->
<!DOCTYPE svg
PUBLIC "-//W3C//DTD SVG 1.1//EN"
       "http://www.w3.org/Graphics/SVG/1.1/DTD/svg11.dtd">
<svg version="1.1" xmlns="http://www.w3.org/2000/svg" xmlns:xlink="http://www.w3.org/1999/xlink" width="23.0273" height="25.5957">
 <g>
  <rect height="25.5957" opacity="0" width="23.0273" x="0" y="0"/>
  <path d="M3.06641 23.0957L19.9609 23.0957C22.0117 23.0957 23.0273 22.0801 23.0273 20.0684L23.0273 14.2871C23.0273 13.3984 22.9102 12.959 22.4707 12.4316L19.1016 8.25195C17.959 6.8457 17.2559 6.02539 15.5273 6.02539L7.50977 6.02539C5.77148 6.02539 5.07812 6.8457 3.93555 8.25195L0.556641 12.4316C0.126953 12.959 0 13.3984 0 14.2871L0 20.0684C0 22.0801 1.02539 23.0957 3.06641 23.0957ZM2.00195 12.998L5.45898 8.63281C5.9375 8.02734 6.67969 7.40234 7.39258 7.40234L15.6348 7.40234C16.3477 7.40234 17.0898 8.02734 17.5684 8.63281L21.0352 12.998C21.4258 13.4961 21.2891 13.6914 20.752 13.6914L14.7266 13.6914C14.1797 13.6914 13.9258 14.1113 13.9258 14.541L13.9258 14.5801C13.9258 15.7812 12.9883 17.041 11.5137 17.041C10.0488 17.041 9.11133 15.7812 9.11133 14.5801L9.11133 14.541C9.11133 14.1113 8.84766 13.6914 8.30078 13.6914L2.29492 13.6914C1.72852 13.6914 1.62109 13.4668 2.00195 12.998Z" fill="#000000" fill-opacity="0.85"/>
  <path d="M11.5137 0C10.2734 0 9.23828 1.01562 9.23828 2.24609L9.23828 12.8223C9.23828 14.0527 10.2734 15.0781 11.5137 15.0781C12.7539 15.0781 13.7891 14.0527 13.7891 12.8223L13.7891 2.24609C13.7891 1.01562 12.7539 0 11.5137 0Z" fill="#ffffff"/>
  <path d="M11.5137 13.5742C11.7188 13.5742 11.8848 13.5156 12.0801 13.3203L15.3809 10.1367C15.5273 9.99023 15.6055 9.82422 15.6055 9.61914C15.6055 9.21875 15.3027 8.93555 14.9023 8.93555C14.707 8.93555 14.502 9.01367 14.3652 9.16992L12.8906 10.7422L12.2266 11.4355L12.2949 9.9707L12.2949 2.24609C12.2949 1.83594 11.9336 1.49414 11.5137 1.49414C11.0938 1.49414 10.7422 1.83594 10.7422 2.24609L10.7422 9.9707L10.8008 11.4355L10.1367 10.7422L8.66211 9.16992C8.51562 9.01367 8.31055 8.93555 8.11523 8.93555C7.71484 8.93555 7.42188 9.21875 7.42188 9.61914C7.42188 9.82422 7.5 9.99023 7.64648 10.1367L10.9473 13.3203C11.1426 13.5156 11.3184 13.5742 11.5137 13.5742Z" fill="#55bef0"/>
 </g>
</svg>
