<?xml version="1.0" encoding="UTF-8"?>
<!--Generator: Apple Native CoreSVG 232.5-->
<!DOCTYPE svg
PUBLIC "-//W3C//DTD SVG 1.1//EN"
       "http://www.w3.org/Graphics/SVG/1.1/DTD/svg11.dtd">
<svg version="1.1" xmlns="http://www.w3.org/2000/svg" xmlns:xlink="http://www.w3.org/1999/xlink" width="27.6855" height="15.752">
 <g>
  <rect height="15.752" opacity="0" width="27.6855" x="0" y="0"/>
  <path d="M13.8477 12.2461C15.7129 12.2461 17.6562 15.3906 21.3672 15.3906C24.9707 15.3906 27.6855 12.1191 27.6855 7.82227C27.6855 0.78125 21.4844 0 13.8477 0C6.20117 0 0 0.791016 0 7.82227C0 12.1191 2.71484 15.3906 6.31836 15.3906C10.0293 15.3906 11.9727 12.2461 13.8477 12.2461ZM13.8477 10.6738C11.0254 10.6738 9.73633 13.8184 6.31836 13.8184C3.4375 13.8184 1.57227 11.5332 1.57227 7.82227C1.57227 2.1582 6.36719 1.57227 13.8477 1.57227C21.3184 1.57227 26.1133 2.14844 26.1133 7.82227C26.1133 11.5332 24.248 13.8184 21.3672 13.8184C17.9492 13.8184 16.6602 10.6738 13.8477 10.6738Z" fill="#000000" fill-opacity="0.85"/>
  <path d="M13.8477 10.6738C11.0254 10.6738 9.73633 13.8184 6.31836 13.8184C3.4375 13.8184 1.57227 11.5332 1.57227 7.82227C1.57227 2.1582 6.36719 1.57227 13.8477 1.57227C21.3184 1.57227 26.1133 2.14844 26.1133 7.82227C26.1133 11.5332 24.248 13.8184 21.3672 13.8184C17.9492 13.8184 16.6602 10.6738 13.8477 10.6738Z" fill="#000000" fill-opacity="0.2125"/>
 </g>
</svg>
