<?xml version="1.0" encoding="UTF-8"?>
<!--Generator: Apple Native CoreSVG 232.5-->
<!DOCTYPE svg
PUBLIC "-//W3C//DTD SVG 1.1//EN"
       "http://www.w3.org/Graphics/SVG/1.1/DTD/svg11.dtd">
<svg version="1.1" xmlns="http://www.w3.org/2000/svg" xmlns:xlink="http://www.w3.org/1999/xlink" width="19.0039" height="20.5176">
 <g>
  <rect height="20.5176" opacity="0" width="19.0039" x="0" y="0"/>
  <path d="M9.6582 20.5078C14.8242 20.5078 19.0039 15.918 19.0039 10.2539C19.0039 4.58984 14.8242 0 9.6582 0C6.88477 0 4.36523 1.32812 2.64648 3.48633C2.4707 3.70117 2.40234 3.90625 2.40234 4.10156C2.40234 4.52148 2.7832 4.81445 3.19336 4.81445C3.42773 4.81445 3.67188 4.7168 3.84766 4.49219C5.27344 2.67578 7.38281 1.57227 9.6582 1.57227C13.9453 1.57227 17.4219 5.45898 17.4219 10.2539C17.4219 15.0488 13.9453 18.9355 9.6582 18.9355C7.38281 18.9355 5.27344 17.8223 3.84766 16.0156C3.67188 15.791 3.42773 15.6934 3.19336 15.6934C2.7832 15.6934 2.40234 15.9863 2.40234 16.4062C2.40234 16.5918 2.4707 16.8066 2.64648 17.0215C4.36523 19.1797 6.88477 20.5078 9.6582 20.5078Z" fill="#000000" fill-opacity="0.5"/>
  <path d="M0 15.2539C0 16.4941 0.986328 17.4707 2.1582 17.5293C1.8457 17.1387 1.68945 16.7676 1.68945 16.4258C1.68945 15.6152 2.44141 14.9805 3.22266 14.9805C3.83789 14.9805 4.15039 15.293 4.56055 15.791C4.59961 15.6152 4.61914 15.4395 4.61914 15.2539L4.61914 5.24414C4.61914 5.05859 4.59961 4.89258 4.56055 4.7168C4.16992 5.18555 3.85742 5.51758 3.23242 5.51758C2.44141 5.51758 1.68945 4.89258 1.68945 4.08203C1.68945 3.74023 1.8457 3.37891 2.1582 2.97852C0.996094 3.03711 0 4.00391 0 5.24414ZM2.32422 10.127C1.45508 10.127 0.742188 9.42383 0.742188 8.56445C0.742188 7.69531 1.45508 6.99219 2.32422 6.99219C3.16406 6.99219 3.87695 7.70508 3.87695 8.56445C3.87695 9.42383 3.17383 10.127 2.32422 10.127ZM2.32422 9.35547C2.76367 9.35547 3.10547 9.01367 3.10547 8.56445C3.10547 8.11523 2.76367 7.76367 2.32422 7.76367C1.85547 7.76367 1.51367 8.11523 1.51367 8.56445C1.51367 9.01367 1.85547 9.35547 2.32422 9.35547Z" fill="#000000" fill-opacity="0.5"/>
 </g>
</svg>
