<?xml version="1.0" encoding="UTF-8"?>
<!--Generator: Apple Native CoreSVG 232.5-->
<!DOCTYPE svg
PUBLIC "-//W3C//DTD SVG 1.1//EN"
       "http://www.w3.org/Graphics/SVG/1.1/DTD/svg11.dtd">
<svg version="1.1" xmlns="http://www.w3.org/2000/svg" xmlns:xlink="http://www.w3.org/1999/xlink" width="23.8396" height="18.3821">
 <g>
  <rect height="18.3821" opacity="0" width="23.8396" x="0" y="0"/>
  <path d="M1.10352 17.7408C1.43555 17.7408 1.72852 17.5455 2.09961 17.3209C3.17383 16.5885 4.49219 16.1393 5.84961 16.149C7.11914 16.1588 8.36914 16.569 9.41406 17.4283C9.13086 16.7838 9.05273 16.0807 9.21875 15.3971C8.28125 14.899 7.10938 14.5768 5.88867 14.5768C4.18945 14.5768 2.60742 15.0553 1.57227 15.7975L1.57227 3.60021C2.36328 2.45763 4.08203 1.68614 5.88867 1.68614C7.74414 1.68614 9.36523 2.46739 10.0586 3.6588L10.0586 13.7467C10.3711 13.3658 11.2207 12.7213 11.6309 12.4381L11.6309 3.6588C12.334 2.46739 13.9551 1.68614 15.8105 1.68614C17.4707 1.68614 19.0723 2.35021 19.9121 3.3463C20.5078 3.27794 21.1133 3.32677 21.6895 3.50255C21.6895 3.20958 21.6797 3.07286 21.582 2.90685C20.7031 1.39317 18.5059 0.113877 15.8105 0.113877C13.6816 0.113877 11.8359 0.963487 10.8496 2.16466C9.86328 0.963487 8.01758 0.113877 5.88867 0.113877C3.19336 0.113877 0.996094 1.39317 0.117188 2.90685C0.0195312 3.07286 0 3.20958 0 3.3756L0 16.6275C0 17.4283 0.527344 17.7408 1.10352 17.7408ZM20.5957 17.7408C21.1719 17.7408 21.6895 17.4283 21.6895 16.6275L21.6895 12.8971C21.0449 13.0826 20.498 13.0436 20.1172 13.1412L20.1172 15.7975C19.5996 15.3971 18.8672 15.065 18.0078 14.899C17.666 15.3483 17.3145 15.8268 17.002 16.2858C17.9688 16.4225 18.877 16.7936 19.5996 17.3209C19.9707 17.5455 20.2539 17.7408 20.5957 17.7408Z" fill="#000000" fill-opacity="0.5"/>
  <path d="M11.1621 17.6725C12.1094 18.6197 13.5254 18.6588 14.4531 17.5455C15.1367 16.7252 16.8555 13.9322 18.3301 12.4576C19.1504 11.6373 20.2539 11.5397 20.8691 11.5397C23.1738 11.5397 24.0723 9.68419 23.7891 8.40489L20.8691 9.17638L20.5371 7.98497C20.4199 7.54552 20.6055 7.17442 21.1035 7.03771L23.2617 6.46153C23.1836 6.26622 22.998 5.98302 22.7637 5.73888C21.4355 4.39122 19.2383 4.36192 17.9297 5.61192C16.0254 7.41856 17.4805 9.35216 16.2207 10.6119C14.6387 12.1842 12.4512 13.3365 11.2891 14.3717C10.1953 15.3483 10.2051 16.7154 11.1621 17.6725ZM12.7832 16.7545C12.3926 16.7545 12.0703 16.4322 12.0703 16.0416C12.0703 15.651 12.3926 15.3385 12.7832 15.3385C13.1836 15.3385 13.4961 15.651 13.4961 16.0416C13.4961 16.4322 13.1836 16.7545 12.7832 16.7545Z" fill="#000000" fill-opacity="0.5"/>
 </g>
</svg>
