<?xml version="1.0" encoding="UTF-8"?>
<!--Generator: Apple Native CoreSVG 232.5-->
<!DOCTYPE svg
PUBLIC "-//W3C//DTD SVG 1.1//EN"
       "http://www.w3.org/Graphics/SVG/1.1/DTD/svg11.dtd">
<svg version="1.1" xmlns="http://www.w3.org/2000/svg" xmlns:xlink="http://www.w3.org/1999/xlink" width="23.9844" height="25.4796">
 <g>
  <rect height="25.4796" opacity="0" width="23.9844" x="0" y="0"/>
  <path d="M3.06641 21.7388L20.918 21.7388C22.9492 21.7388 23.9844 20.7232 23.9844 18.7115L23.9844 8.48689C23.9844 6.47517 22.9492 5.46931 20.918 5.46931L18.125 5.46931C17.3535 5.46931 17.1191 5.31306 16.6797 4.82478L15.8984 3.94587C15.4102 3.40876 14.9121 3.11579 13.9062 3.11579L10.0098 3.11579C9.00391 3.11579 8.50586 3.40876 8.01758 3.94587L7.23633 4.82478C6.79688 5.30329 6.55273 5.46931 5.79102 5.46931L3.06641 5.46931C1.02539 5.46931 0 6.47517 0 8.48689L0 18.7115C0 20.7232 1.02539 21.7388 3.06641 21.7388ZM11.9922 18.858C9.0332 18.858 6.66016 16.4947 6.66016 13.5162C6.66016 10.5474 9.0332 8.18415 11.9922 8.18415C14.9512 8.18415 17.3145 10.5474 17.3145 13.5162C17.3145 16.4947 14.9414 18.858 11.9922 18.858ZM11.9922 17.3736C14.1211 17.3736 15.8398 15.6646 15.8398 13.5162C15.8398 11.3775 14.1211 9.65876 11.9922 9.65876C9.86328 9.65876 8.13477 11.3775 8.13477 13.5162C8.13477 15.6646 9.87305 17.3736 11.9922 17.3736ZM17.9688 9.92244C17.9688 9.25837 18.5449 8.67244 19.2383 8.67244C19.9023 8.67244 20.4883 9.25837 20.4883 9.92244C20.4883 10.6158 19.9023 11.1724 19.2383 11.1822C18.5449 11.1822 17.9688 10.6256 17.9688 9.92244Z" fill="#000000" fill-opacity="0.5"/>
  <path d="M1.30859 1.38728L4.05273 3.74079C4.22852 3.88728 4.41406 4.00447 4.61914 4.00447C4.83398 4.00447 5.01953 3.88728 5.19531 3.74079L7.93945 1.38728C8.75 0.703685 7.79297-0.546315 6.89453 0.264232L4.61914 2.34431L2.35352 0.264232C1.44531-0.546315 0.498047 0.703685 1.30859 1.38728Z" fill="#000000" fill-opacity="0.5"/>
 </g>
</svg>
