<?xml version="1.0" encoding="UTF-8"?>
<!--Generator: Apple Native CoreSVG 232.5-->
<!DOCTYPE svg
PUBLIC "-//W3C//DTD SVG 1.1//EN"
       "http://www.w3.org/Graphics/SVG/1.1/DTD/svg11.dtd">
<svg version="1.1" xmlns="http://www.w3.org/2000/svg" xmlns:xlink="http://www.w3.org/1999/xlink" width="24.7363" height="18.877">
 <g>
  <rect height="18.877" opacity="0" width="24.7363" x="0" y="0"/>
  <path d="M12.373 14.9121C12.9102 14.9121 13.3496 14.4727 13.3496 13.9355L13.3496 9.02344C13.3496 8.78906 13.2617 8.57422 13.0762 8.35938L10.5176 5.50781C10.3613 5.33203 10.4688 5.06836 10.7129 5.06836L13.8477 5.06836C14.2285 5.06836 14.3457 5.3418 14.3457 5.60547L14.3457 8.03711C14.3457 8.57422 14.7852 9.00391 15.3223 9.00391L19.2578 9.00391C19.7949 9.00391 20.2246 8.57422 20.2246 8.03711C20.2246 7.5 19.7949 7.06055 19.2578 7.06055L16.2988 7.06055L16.2988 3.60352C16.2988 2.50977 15.4297 1.64062 14.3359 1.64062L9.54102 1.64062C8.54492 1.64062 7.66602 2.24609 7.27539 3.1543C6.89453 4.08203 7.10938 5.11719 7.8125 5.83008L11.3965 9.43359L11.3965 13.9355C11.3965 14.4727 11.8359 14.9121 12.373 14.9121ZM5.30273 18.7598C8.25195 18.7598 10.6152 16.3965 10.6152 13.4473C10.6152 10.5078 8.25195 8.13477 5.30273 8.13477C2.36328 8.13477 0 10.5078 0 13.4473C0 16.3965 2.36328 18.7598 5.30273 18.7598ZM5.30273 17.3828C3.14453 17.3828 1.37695 15.6152 1.37695 13.4473C1.37695 11.2793 3.14453 9.51172 5.30273 9.51172C7.4707 9.51172 9.23828 11.2793 9.23828 13.4473C9.23828 15.6152 7.4707 17.3828 5.30273 17.3828ZM22.0508 10.5273C22.8418 11.2402 23.3594 12.2852 23.3594 13.4473C23.3594 15.6152 21.5918 17.3828 19.4336 17.3828C17.2656 17.3828 15.498 15.6152 15.498 13.4473C15.498 12.9004 15.6055 12.3633 15.8105 11.8945C16.0352 11.3672 15.8105 10.9961 15.4688 10.8789C15.1465 10.752 14.7656 10.8594 14.5898 11.2793C14.2871 11.9531 14.1211 12.6758 14.1211 13.4473C14.1211 16.3965 16.4844 18.7598 19.4336 18.7598C22.373 18.7598 24.7363 16.3965 24.7363 13.4473C24.7363 11.8457 24.043 10.4395 22.9199 9.45312C22.5586 9.14062 22.1484 9.21875 21.9043 9.48242C21.6699 9.74609 21.6309 10.1562 22.0508 10.5273ZM19.4336 4.26758C20.6055 4.26758 21.5527 3.31055 21.5527 2.12891C21.5527 0.957031 20.6055 0 19.4336 0C18.2422 0 17.2852 0.957031 17.2852 2.12891C17.2852 3.31055 18.2422 4.26758 19.4336 4.26758Z" fill="#000000" fill-opacity="0.5"/>
 </g>
</svg>
