<?xml version="1.0" encoding="UTF-8"?>
<!--Generator: Apple Native CoreSVG 232.5-->
<!DOCTYPE svg
PUBLIC "-//W3C//DTD SVG 1.1//EN"
       "http://www.w3.org/Graphics/SVG/1.1/DTD/svg11.dtd">
<svg version="1.1" xmlns="http://www.w3.org/2000/svg" xmlns:xlink="http://www.w3.org/1999/xlink" width="26.0645" height="14.4434">
 <g>
  <rect height="14.4434" opacity="0" width="26.0645" x="0" y="0"/>
  <path d="M12.9883 14.4434C13.3203 14.4434 13.5547 14.2578 13.5547 13.9258C13.5547 13.7793 13.5254 13.7012 13.418 13.4961C12.2266 11.6504 11.543 9.53125 11.543 7.23633C11.543 5.01953 12.1875 2.80273 13.418 0.947266C13.5254 0.742188 13.5547 0.664062 13.5547 0.517578C13.5547 0.205078 13.3203 0 12.9883 0C12.666 0 12.4121 0.146484 12.0996 0.576172C10.625 2.44141 9.89258 4.76562 9.89258 7.22656C9.89258 9.6875 10.6055 11.9434 12.0996 13.8672C12.4121 14.2969 12.666 14.4434 12.9883 14.4434ZM15.0391 11.8555C15.3516 11.8555 15.5762 11.748 15.8203 11.3965L17.959 8.34961L17.998 8.34961L20.1855 11.4453C20.4297 11.7871 20.6641 11.8555 20.8984 11.8555C21.3672 11.8555 21.6699 11.5234 21.6699 11.123C21.6699 10.9375 21.6211 10.7617 21.4941 10.5957L18.9941 7.19727L21.4941 3.84766C21.6113 3.68164 21.6797 3.50586 21.6797 3.30078C21.6797 2.88086 21.3281 2.58789 20.9277 2.58789C20.5762 2.58789 20.3809 2.76367 20.1953 3.04688L18.1348 6.06445L18.0859 6.06445L16.0156 3.03711C15.8203 2.75391 15.5957 2.58789 15.2246 2.58789C14.7656 2.58789 14.4238 2.94922 14.4238 3.33984C14.4238 3.62305 14.5117 3.79883 14.6387 3.96484L17.0215 7.14844L14.4922 10.6348C14.3555 10.8203 14.3262 10.9863 14.3262 11.1816C14.3262 11.5625 14.6484 11.8555 15.0391 11.8555ZM22.9688 14.4434C23.291 14.4434 23.5449 14.2969 23.8574 13.8672C25.3516 11.9434 26.0645 9.6875 26.0645 7.22656C26.0645 4.76562 25.332 2.44141 23.8574 0.576172C23.5449 0.146484 23.291 0 22.9688 0C22.6367 0 22.4023 0.205078 22.4023 0.517578C22.4023 0.664062 22.4316 0.742188 22.5391 0.947266C23.7695 2.80273 24.4141 5.01953 24.4141 7.23633C24.4141 9.53125 23.7305 11.6504 22.5391 13.4961C22.4316 13.7012 22.4023 13.7793 22.4023 13.9258C22.4023 14.2383 22.6367 14.4434 22.9688 14.4434Z" fill="#000000" fill-opacity="0.5"/>
  <path d="M1.31836 14.4238C3.23242 14.4238 4.11133 13.6035 4.58008 11.4062L5.69336 6.06445L7.46094 6.06445C8.02734 6.06445 8.38867 5.76172 8.38867 5.27344C8.38867 4.85352 8.11523 4.58984 7.66602 4.58984L6.00586 4.58984L6.2793 3.26172C6.54297 2.02148 6.93359 1.51367 8.00781 1.51367C8.17383 1.51367 8.33008 1.50391 8.4375 1.49414C8.91602 1.44531 9.14062 1.2207 9.14062 0.800781C9.14062 0.253906 8.68164 0.00976562 7.74414 0.00976562C5.87891 0.00976562 4.92188 0.9375 4.48242 3.02734L4.16016 4.58984L2.94922 4.58984C2.37305 4.58984 2.01172 4.89258 2.01172 5.38086C2.01172 5.80078 2.28516 6.06445 2.74414 6.06445L3.84766 6.06445L2.77344 11.1719C2.5 12.4512 2.09961 12.9199 1.05469 12.9199C0.917969 12.9199 0.78125 12.9297 0.693359 12.9395C0.244141 12.998 0 13.2422 0 13.6523C0 14.1797 0.449219 14.4238 1.31836 14.4238Z" fill="#000000" fill-opacity="0.5"/>
 </g>
</svg>
