<?xml version="1.0" encoding="UTF-8"?>
<!--Generator: Apple Native CoreSVG 232.5-->
<!DOCTYPE svg
PUBLIC "-//W3C//DTD SVG 1.1//EN"
       "http://www.w3.org/Graphics/SVG/1.1/DTD/svg11.dtd">
<svg version="1.1" xmlns="http://www.w3.org/2000/svg" xmlns:xlink="http://www.w3.org/1999/xlink" width="28.1934" height="17.7051">
 <g>
  <rect height="17.7051" opacity="0" width="28.1934" x="0" y="0"/>
  <path d="M5.94727 6.89453C5.94727 6.38672 6.25977 6.07422 6.78711 6.07422L8.59375 6.07422L8.59375 4.31641C8.59375 3.79883 8.88672 3.48633 9.39453 3.48633C9.89258 3.48633 10.1953 3.79883 10.1953 4.31641L10.1953 6.07422L11.8848 6.07422C12.4512 6.07422 12.793 6.38672 12.793 6.89453C12.793 7.42188 12.4512 7.74414 11.8848 7.74414L10.1953 7.74414L10.1953 9.50195C10.1953 10.0195 9.89258 10.3418 9.39453 10.3418C8.88672 10.3418 8.59375 10.0195 8.59375 9.50195L8.59375 7.74414L6.78711 7.74414C6.25977 7.74414 5.94727 7.42188 5.94727 6.89453ZM20.3613 6.79688C19.5605 6.79688 18.8867 6.14258 18.8867 5.33203C18.8867 4.51172 19.5605 3.85742 20.3613 3.85742C21.1816 3.85742 21.8359 4.51172 21.8359 5.33203C21.8359 6.14258 21.1816 6.79688 20.3613 6.79688ZM17.4023 9.77539C16.6016 9.77539 15.9277 9.12109 15.9277 8.31055C15.9277 7.5 16.6016 6.83594 17.4023 6.83594C18.2129 6.83594 18.877 7.5 18.877 8.31055C18.877 9.12109 18.2129 9.77539 17.4023 9.77539ZM3.7207 17.7051C5.05859 17.7051 5.97656 17.2168 6.79688 16.2012L8.56445 14.0625C8.81836 13.7598 9.11133 13.6133 9.4043 13.6133L18.7891 13.6133C19.082 13.6133 19.375 13.7598 19.6289 14.0625L21.3965 16.2012C22.2168 17.2168 23.1348 17.7051 24.4727 17.7051C26.709 17.7051 28.1934 16.2207 28.1934 13.9355C28.1934 12.959 27.9688 11.8359 27.5879 10.5762C26.9922 8.57422 25.9473 5.84961 24.9512 3.74023C24.1113 1.98242 23.6816 1.18164 21.6113 0.712891C19.7754 0.292969 17.2266 0.00976562 14.1016 0.00976562C10.9766 0.00976562 8.41797 0.292969 6.58203 0.712891C4.51172 1.18164 4.08203 1.98242 3.24219 3.74023C2.24609 5.84961 1.20117 8.57422 0.605469 10.5762C0.224609 11.8359 0 12.959 0 13.9355C0 16.2207 1.48438 17.7051 3.7207 17.7051Z" fill="#000000" fill-opacity="0.5"/>
 </g>
</svg>
