<?xml version="1.0" encoding="UTF-8"?>
<!--Generator: Apple Native CoreSVG 232.5-->
<!DOCTYPE svg
PUBLIC "-//W3C//DTD SVG 1.1//EN"
       "http://www.w3.org/Graphics/SVG/1.1/DTD/svg11.dtd">
<svg version="1.1" xmlns="http://www.w3.org/2000/svg" xmlns:xlink="http://www.w3.org/1999/xlink" width="23.3105" height="22.1631">
 <g>
  <rect height="22.1631" opacity="0" width="23.3105" x="0" y="0"/>
  <path d="M14.1699 18.938L9.13086 18.938L9.13086 12.4829C9.13086 12.0337 9.43359 11.7407 9.88281 11.7407L13.4277 11.7407C13.877 11.7407 14.1699 12.0337 14.1699 12.4829ZM3.04688 18.3521C3.04688 19.7095 3.86719 20.5103 5.24414 20.5103L18.0859 20.5103C19.4629 20.5103 20.2734 19.7095 20.2734 18.3521L20.2734 10.6177L12.2461 3.88916C11.875 3.57666 11.4355 3.58643 11.0742 3.88916L3.04688 10.6177ZM0 9.64111C0 10.0415 0.3125 10.4224 0.839844 10.4224C1.11328 10.4224 1.33789 10.2759 1.54297 10.1099L11.3184 1.90674C11.5332 1.71143 11.7969 1.71143 12.0117 1.90674L21.7871 10.1099C21.9824 10.2759 22.207 10.4224 22.4805 10.4224C22.9395 10.4224 23.3105 10.1392 23.3105 9.67041C23.3105 9.37744 23.2129 9.18213 23.0078 9.00635L12.8418 0.461426C12.1191-0.153809 11.2207-0.153809 10.4883 0.461426L0.3125 9.00635C0.0976562 9.18213 0 9.4165 0 9.64111ZM17.8223 5.23682L20.2734 7.30713L20.2734 2.79541C20.2734 2.36572 20 2.09229 19.5703 2.09229L18.5254 2.09229C18.1055 2.09229 17.8223 2.36572 17.8223 2.79541Z" fill="#55bef0" fill-opacity="0.59"/>
 </g>
</svg>
