<svg id="SvgjsSvg1011" width="550" height="345" xmlns="http://www.w3.org/2000/svg" version="1.1" xmlns:xlink="http://www.w3.org/1999/xlink" xmlns:svgjs="http://svgjs.com/svgjs" viewBox="0 0 550 345" style="width: 100%; height: 100%;"><defs id="SvgjsDefs1012"></defs><svg xmlns="http://www.w3.org/2000/svg" data-version="3.4.38" data-background-color="#FFFFFF" width="550" height="521.4640143157551" viewBox="-130.36600357893877 0 782.1960214736326 521.4640143157551" x="0" y="-88.23200715787755"><defs><mask id="3f864560-833d-11eb-9593-17e9c433b887"><circle r="160.73200715787755" cx="114.42500000000001" cy="-26.5" fill="white" opacity="0.12"></circle><circle r="152.44500032798715" cx="114.42500000000001" cy="-26.5" fill="black" opacity="1" stroke-width="0" stroke="transparent" data-fill-palette-color="black" data-stroke-palette-color="transparent" id="circle-0" class="circle-0" data-palette-color="black"></circle></mask></defs><rect id="background" fill="#FFFFFF" width="782.1960214736326" height="521.4640143157551" x="-130.36600357893877"></rect><g transform="matrix(1,0,0,1,146.30700715787754,287.23200715787755)"><g id="tight-bounds"><g></g><g><svg version="1.1" xmlns:xlink="http://www.w3.org/1999/xlink" xmlns:svgjs="http://svgjs.com/svgjs" viewBox="6.05 -38.7 228.85 40.35" width="228.85" height="40.35" x="0" y="0" data-palette-color="#0074d9"><path d="M25 0L31.75-3.55L44.15-4.75L43.55 0L25 0ZM23.40 0.35L23.40 0.35Q20.10 0.35 16.98-0.75Q13.85-1.85 11.40-4Q8.95-6.15 7.50-9.35Q6.05-12.55 6.05-16.75L6.05-16.75Q6.05-20.05 7.28-23.53Q8.50-27 10.95-29.93Q13.40-32.85 17.10-34.68Q20.80-36.50 25.70-36.50L25.70-36.50Q29-36.50 32.10-35.40Q35.20-34.30 37.68-32.15Q40.15-30 41.58-26.78Q43-23.55 43-19.35L43-19.35Q43-16.05 41.78-12.58Q40.55-9.10 38.10-6.18Q35.65-3.25 31.98-1.45Q28.30 0.35 23.40 0.35ZM23.45-4.30L23.45-4.30Q27.20-4.30 29.95-5.68Q32.70-7.05 34.50-9.25Q36.30-11.45 37.18-14.05Q38.05-16.65 38.05-19.10L38.05-19.10Q38.05-21.70 37.10-23.98Q36.15-26.25 34.48-28.03Q32.80-29.80 30.50-30.83Q28.20-31.85 25.50-31.85L25.50-31.85Q21.70-31.85 18.98-30.48Q16.25-29.10 14.48-26.90Q12.70-24.70 11.85-22.10Q11-19.50 11-17L11-17Q11-14.45 11.93-12.15Q12.85-9.85 14.50-8.10Q16.15-6.35 18.43-5.33Q20.70-4.30 23.45-4.30ZM53.65 0.80L53.65 0.80Q50.80 0.80 49.15-0.88Q47.50-2.55 47.80-5.30L47.80-5.30L49.65-20.70L54.30-20.70L52.60-6.90Q52.50-5.35 53.28-4.30Q54.05-3.25 55.90-3.20L55.90-3.20Q57.65-3.20 59.18-4.23Q60.70-5.25 61.75-7.03Q62.80-8.80 63.05-11.05L63.05-11.05L64.25-20.70L68.90-20.70L66.35 0L62.15 0L62.40-4.95L62.60-4.25Q61.80-2.85 60.42-1.70Q59.05-0.55 57.33 0.13Q55.60 0.80 53.65 0.80ZM71.65 0L74.20-20.70L78.85-20.70L76.30 0L71.65 0ZM74.55-27.60L74.55-27.60Q74.55-28.75 75.40-29.55Q76.25-30.35 77.50-30.35L77.50-30.35Q78.45-30.35 79.33-29.75Q80.20-29.15 80.15-27.90L80.15-27.90Q80.10-26.75 79.25-25.95Q78.40-25.15 77.15-25.15L77.15-25.15Q76.20-25.15 75.35-25.78Q74.50-26.40 74.55-27.60ZM84.15-20.70L88.35-20.70L88.30-16L87.95-16.65Q89.30-18.80 91.63-20.15Q93.95-21.50 97.00-21.50L97.00-21.50Q100.00-21.50 101.68-19.78Q103.35-18.05 103.10-15.30L103.10-15.30L101.20 0L96.55 0L98.20-13.70Q98.40-15.40 97.53-16.45Q96.65-17.50 94.70-17.50L94.70-17.50Q92.85-17.50 91.30-16.48Q89.75-15.45 88.75-13.70Q87.75-11.95 87.50-9.70L87.50-9.70L86.30 0L81.65 0L84.15-20.70ZM109.05-20.70L113.25-20.70L113.20-16L112.85-16.65Q114.20-18.80 116.53-20.15Q118.85-21.50 121.90-21.50L121.90-21.50Q124.90-21.50 126.58-19.78Q128.25-18.05 128-15.30L128-15.30L126.10 0L121.45 0L123.10-13.70Q123.30-15.40 122.43-16.45Q121.55-17.50 119.60-17.50L119.60-17.50Q117.75-17.50 116.20-16.48Q114.65-15.45 113.65-13.70Q112.65-11.95 112.40-9.70L112.40-9.70L111.20 0L106.55 0L109.05-20.70ZM132.45-8.70L132.90-12.80L142.25-12.80L141.75-8.70L132.45-8.70ZM156.05 1.65L146.30-35.95L151.90-35.95L158.30-8.45L157.50-8.75L166.90-27.20L168.40-20.65L156.05 1.65ZM173.80 1.60L163.70-35.95L168.50-35.95L175.80-8.80L174.80-9L187.45-35.95L192.60-35.95L173.80 1.60ZM197.65-3.50L197.65-3.50Q198.90-3.50 200.05-3.93Q201.20-4.35 202.25-5L202.25-5L203.95-1.45Q202.45-0.55 200.68-0.05Q198.90 0.45 197.20 0.45L197.20 0.45Q193.95 0.45 191.50-0.78Q189.05-2 187.68-4.35Q186.30-6.70 186.30-10L186.30-10Q186.30-12.05 187.05-14.05Q187.80-16.05 189.30-17.73Q190.80-19.40 193.03-20.43Q195.25-21.45 198.20-21.45L198.20-21.45Q200.05-21.45 201.73-20.98Q203.40-20.50 204.80-19.40Q206.20-18.30 207.18-16.45Q208.15-14.60 208.55-11.90L208.55-11.90L190.85-6.90L190.10-9.75L205.20-14.10L203.55-13.35Q203.05-15.30 201.58-16.55Q200.10-17.80 198.05-17.80L198.05-17.80Q195.85-17.80 194.25-16.78Q192.65-15.75 191.80-14.10Q190.95-12.45 190.95-10.55L190.95-10.55Q190.95-8.15 191.90-6.60Q192.85-5.05 194.40-4.28Q195.95-3.50 197.65-3.50ZM222.95 0.45L222.95 0.45Q219.95 0.45 217.88-0.88Q215.80-2.20 214.75-4.20L214.75-4.20L215.45-5.55L214.75 0L210.10 0L214.85-38.70L219.50-38.70L216.75-16.15L216.75-17.85Q218.10-19.45 220.25-20.48Q222.40-21.50 225.10-21.50L225.10-21.50Q227.80-21.50 230.03-20.35Q232.25-19.20 233.58-16.90Q234.90-14.60 234.90-11.20L234.90-11.20Q234.90-8.25 233.50-5.55Q232.10-2.85 229.43-1.20Q226.75 0.45 222.95 0.45ZM222.50-3.50L222.50-3.50Q224.60-3.50 226.05-4.20Q227.50-4.90 228.40-6.03Q229.30-7.15 229.70-8.45Q230.10-9.75 230.10-10.90L230.10-10.90Q230.10-13 229.30-14.58Q228.50-16.15 227.00-17Q225.50-17.85 223.45-17.85L223.45-17.85Q221.00-17.85 219.13-16.50Q217.25-15.15 216.40-13L216.40-13L215.85-8.80Q216.05-8 216.53-7.08Q217.00-6.15 217.75-5.33Q218.50-4.50 219.68-4Q220.85-3.50 222.50-3.50Z" opacity="1" transform="matrix(1,0,0,1,0,0)" fill="#0074d9" data-fill-palette-color="primary" data-stroke-palette-color="transparent" id="text-0" class="wordmark-0"></path></svg></g><g></g><g></g><g><svg xmlns:x="http://ns.adobe.com/Extensibility/1.0/" xmlns:i="http://ns.adobe.com/AdobeIllustrator/10.0/" xmlns:graph="http://ns.adobe.com/Graphs/1.0/" xmlns:xlink="http://www.w3.org/1999/xlink" version="1.1" x="75.91616509613056" y="-93.35" viewBox="-0.5102180761964019 1.9 100.9102180761964 96.19999999999999" enable-background="new 0 0 100 100" xml:space="preserve" height="73.35" width="77.01766980773893" id="icon-0" class="icon-0" fill="#0074d9" data-fill-palette-color="accent" data-stroke-palette-color="transparent"><path d="M50,2.9c-4.1,0-8,0.8-11.8,2.4C22.5,11.7,15,29.8,21.5,45.5c4.8,11.6,16,19.1,28.5,19.1c4.1,0,8-0.8,11.8-2.4  C77.5,55.7,85,37.7,78.5,21.9C73.7,10.4,62.5,2.9,50,2.9z M25.5,42.1c-1.9-5.4-1.9-11.2,0-16.7h6.6c-0.5,2.7-0.8,5.6-0.8,8.3  c0,2.6,0.3,5.4,1,8.3H25.5z M36.3,33.7c0-2.9,0.3-5.7,0.9-8.3h10.3v16.7H37.4C36.7,39.3,36.3,36.4,36.3,33.7z M52.5,9.2  c3.5,1.4,6.7,5.7,8.8,11.2h-8.8V9.2z M47.5,9.2v11.2h-8.8C40.8,14.9,44,10.6,47.5,9.2z M47.5,47.1v11.1c-3.3-1.5-6.4-5.9-8.5-11.1  H47.5z M52.5,58.2V47.1H61C58.9,52.3,55.8,56.7,52.5,58.2z M52.5,42.1V25.4h10.3c0.6,2.7,0.9,5.5,0.9,8.3c0,2.7-0.4,5.5-1.1,8.3  H52.5z M67.9,25.4h6.6c1.9,5.6,1.8,11.4,0,16.7h-6.8c0.7-2.9,1-5.8,1-8.3C68.7,31,68.4,28.1,67.9,25.4z M72.2,20.4h-5.6  c-1.1-3.6-2.7-6.9-4.7-9.6C66.1,13,69.7,16.3,72.2,20.4z M38.1,10.8c-1.9,2.7-3.5,6-4.7,9.6h-5.5C30.3,16.3,33.8,13,38.1,10.8z   M27.8,47.1h5.9c1.3,3.7,3,7.2,5.2,10.1C34.4,55,30.5,51.5,27.8,47.1z M61.1,57.1c2.1-2.9,3.9-6.4,5.1-10h5.9  C69.6,51.3,65.8,54.9,61.1,57.1z M9.7,97.1c2.7,0,5.3-1.2,7.1-3.3c0.8-1,1.4-2.1,1.8-3.4h22.6c1.1,3.9,4.6,6.7,8.8,6.7  c4.2,0,7.7-2.8,8.8-6.7h22.6c1.1,3.9,4.6,6.7,8.8,6.7c5.1,0,9.2-4.1,9.2-9.2c0-5.1-4.1-9.2-9.2-9.2c-4.2,0-7.7,2.8-8.8,6.7H58.8  c-0.9-3.1-3.3-5.5-6.3-6.3v-6.9c0-1.4-1.1-2.5-2.5-2.5s-2.5,1.1-2.5,2.5v6.9c-3.1,0.9-5.5,3.3-6.3,6.3H18.5c-0.9-3.3-3.7-5.9-7-6.5  c-3.3-0.6-6.7,0.6-8.9,3.2c-1.8,2.1-2.5,4.9-1.9,7.6c0.7,3.6,3.6,6.6,7.2,7.2C8.5,97.1,9.1,97.1,9.7,97.1z M90.3,83.7  c2.3,0,4.2,1.9,4.2,4.2c0,2.3-1.9,4.2-4.2,4.2c-2.2,0-4-1.7-4.2-3.9c0-0.1,0-0.2,0-0.3s0-0.2,0-0.3C86.3,85.5,88.1,83.7,90.3,83.7z   M50,83.7c2.3,0,4.2,1.9,4.2,4.2c0,2.3-1.9,4.2-4.2,4.2s-4.2-1.9-4.2-4.2C45.8,85.6,47.7,83.7,50,83.7z M5.6,88.8  c-0.2-1.3,0.1-2.5,0.9-3.5c0.8-1,2-1.5,3.2-1.5c0.3,0,0.6,0,0.8,0.1c1.6,0.3,3,1.6,3.3,3.3c0.2,1.3-0.1,2.5-0.9,3.5  c-1,1.2-2.5,1.7-4.1,1.4C7.2,91.7,5.9,90.4,5.6,88.8z" fill="#0074d9" data-fill-palette-color="accent" data-stroke-palette-color="transparent"></path></svg></g><g></g><g><circle r="160.73200715787755" cx="114.42500000000001" cy="-26.5" fill="#7fdbff" stroke-width="0" stroke="#7fdbff" data-fill-palette-color="secondary" data-stroke-palette-color="secondary" id="circle-1" class="circle-1" mask="url(#3f864560-833d-11eb-9593-17e9c433b887)" data-palette-color="#7fdbff"></circle></g></g><g id="character" width="365.02481002102854" height="365.02481002102854" style="display: none;" transform="matrix(1,0,0,1,146.30700715787754,287.23200715787755)"><path d="M182.02 272.04L215.45 254.45 276.86 248.51 273.89 272.04 182.02 272.04ZM174.09 273.77L174.09 273.77Q157.75 273.77 142.27 268.32 126.79 262.87 114.66 252.22 102.52 241.58 95.34 225.73 88.16 209.88 88.16 189.07L88.16 189.07Q88.16 172.73 94.23 155.52 100.3 138.31 112.43 123.82 124.56 109.33 142.89 100.3 161.22 91.26 185.48 91.26L185.48 91.26Q201.83 91.26 217.18 96.7 232.54 102.15 244.79 112.8 257.05 123.45 264.11 139.42 271.17 155.4 271.17 176.2L271.17 176.2Q271.17 192.54 265.1 209.75 259.03 226.96 246.9 241.45 234.76 255.94 216.56 264.85 198.36 273.77 174.09 273.77ZM174.34 250.74L174.34 250.74Q192.91 250.74 206.53 243.93 220.15 237.12 229.07 226.22 237.98 215.33 242.32 202.45 246.65 189.57 246.65 177.44L246.65 177.44Q246.65 164.56 241.95 153.29 237.24 142.02 228.95 133.23 220.65 124.44 209.26 119.36 197.87 114.29 184.49 114.29L184.49 114.29Q165.67 114.29 152.18 121.1 138.68 127.91 129.89 138.8 121.1 149.7 116.89 162.58 112.68 175.45 112.68 187.84L112.68 187.84Q112.68 200.47 117.26 211.86 121.84 223.25 130.01 231.92 138.18 240.58 149.45 245.66 160.72 250.74 174.34 250.74Z" fill="#0074d9"></path></g></g></svg></svg>